<mxfile host="Electron" agent="Mozilla/5.0 (Windows NT 10.0; Win64; x64) AppleWebKit/537.36 (KHTML, like Gecko) draw.io/26.2.15 Chrome/134.0.6998.205 Electron/35.2.1 Safari/537.36" version="26.2.15">
  <diagram id="FMKxWfmA9thw47G1BriB" name="Страница 1">
    <mxGraphModel dx="1656" dy="968" grid="1" gridSize="10" guides="1" tooltips="1" connect="1" arrows="1" fold="1" page="1" pageScale="1" pageWidth="827" pageHeight="1169" math="0" shadow="0">
      <root>
        <mxCell id="0" />
        <mxCell id="1" parent="0" />
        <mxCell id="Buz3wt09EOpWGdU0lARC-3" value="Да" style="edgeStyle=orthogonalEdgeStyle;rounded=0;orthogonalLoop=1;jettySize=auto;html=1;" parent="1" source="Buz3wt09EOpWGdU0lARC-1" target="Buz3wt09EOpWGdU0lARC-10" edge="1">
          <mxGeometry relative="1" as="geometry" />
        </mxCell>
        <mxCell id="Buz3wt09EOpWGdU0lARC-9" value="Нет" style="edgeStyle=orthogonalEdgeStyle;rounded=0;orthogonalLoop=1;jettySize=auto;html=1;" parent="1" source="Buz3wt09EOpWGdU0lARC-1" target="Buz3wt09EOpWGdU0lARC-8" edge="1">
          <mxGeometry relative="1" as="geometry" />
        </mxCell>
        <mxCell id="Buz3wt09EOpWGdU0lARC-1" value="У класса будут наследники?" style="strokeWidth=2;html=1;shape=mxgraph.flowchart.decision;whiteSpace=wrap;" parent="1" vertex="1">
          <mxGeometry x="280" y="250" width="200" height="90" as="geometry" />
        </mxCell>
        <mxCell id="Buz3wt09EOpWGdU0lARC-5" value="Да" style="edgeStyle=orthogonalEdgeStyle;rounded=0;orthogonalLoop=1;jettySize=auto;html=1;" parent="1" source="Buz3wt09EOpWGdU0lARC-2" target="Buz3wt09EOpWGdU0lARC-4" edge="1">
          <mxGeometry relative="1" as="geometry" />
        </mxCell>
        <mxCell id="Buz3wt09EOpWGdU0lARC-7" value="Нет" style="edgeStyle=orthogonalEdgeStyle;rounded=0;orthogonalLoop=1;jettySize=auto;html=1;" parent="1" source="Buz3wt09EOpWGdU0lARC-2" target="Buz3wt09EOpWGdU0lARC-6" edge="1">
          <mxGeometry relative="1" as="geometry">
            <Array as="points">
              <mxPoint x="630" y="610" />
            </Array>
          </mxGeometry>
        </mxCell>
        <mxCell id="Buz3wt09EOpWGdU0lARC-2" value="Наследники этого класса&lt;br&gt;будут удаляться&amp;nbsp;оператором delete&lt;br&gt;по указателю на этот класс?" style="strokeWidth=2;html=1;shape=mxgraph.flowchart.decision;whiteSpace=wrap;" parent="1" vertex="1">
          <mxGeometry x="240" y="520" width="280" height="120" as="geometry" />
        </mxCell>
        <mxCell id="Buz3wt09EOpWGdU0lARC-15" style="edgeStyle=orthogonalEdgeStyle;rounded=0;orthogonalLoop=1;jettySize=auto;html=1;" parent="1" source="Buz3wt09EOpWGdU0lARC-4" target="Buz3wt09EOpWGdU0lARC-14" edge="1">
          <mxGeometry relative="1" as="geometry" />
        </mxCell>
        <mxCell id="Buz3wt09EOpWGdU0lARC-4" value="Деструктор должен быть публичным виртуальным" style="whiteSpace=wrap;html=1;strokeWidth=2;" parent="1" vertex="1">
          <mxGeometry x="280" y="720" width="200" height="60" as="geometry" />
        </mxCell>
        <mxCell id="Buz3wt09EOpWGdU0lARC-16" style="edgeStyle=orthogonalEdgeStyle;rounded=0;orthogonalLoop=1;jettySize=auto;html=1;" parent="1" source="Buz3wt09EOpWGdU0lARC-6" target="Buz3wt09EOpWGdU0lARC-14" edge="1">
          <mxGeometry relative="1" as="geometry">
            <Array as="points">
              <mxPoint x="630" y="800" />
              <mxPoint x="380" y="800" />
            </Array>
          </mxGeometry>
        </mxCell>
        <mxCell id="Buz3wt09EOpWGdU0lARC-6" value="Деструктор должен быть защищённым невиртуальным" style="whiteSpace=wrap;html=1;strokeWidth=2;" parent="1" vertex="1">
          <mxGeometry x="530" y="720" width="200" height="60" as="geometry" />
        </mxCell>
        <mxCell id="Buz3wt09EOpWGdU0lARC-17" style="edgeStyle=orthogonalEdgeStyle;rounded=0;orthogonalLoop=1;jettySize=auto;html=1;" parent="1" source="Buz3wt09EOpWGdU0lARC-8" target="Buz3wt09EOpWGdU0lARC-14" edge="1">
          <mxGeometry relative="1" as="geometry">
            <Array as="points">
              <mxPoint x="840" y="800" />
              <mxPoint x="380" y="800" />
            </Array>
          </mxGeometry>
        </mxCell>
        <mxCell id="Buz3wt09EOpWGdU0lARC-8" value="Деструктор должен быть публичным невиртуальным или вообще не написан" style="whiteSpace=wrap;html=1;strokeWidth=2;" parent="1" vertex="1">
          <mxGeometry x="760" y="720" width="160" height="60" as="geometry" />
        </mxCell>
        <mxCell id="Buz3wt09EOpWGdU0lARC-11" value="Да" style="edgeStyle=orthogonalEdgeStyle;rounded=0;orthogonalLoop=1;jettySize=auto;html=1;" parent="1" source="Buz3wt09EOpWGdU0lARC-10" target="Buz3wt09EOpWGdU0lARC-2" edge="1">
          <mxGeometry relative="1" as="geometry" />
        </mxCell>
        <mxCell id="Buz3wt09EOpWGdU0lARC-12" value="Нет" style="edgeStyle=orthogonalEdgeStyle;rounded=0;orthogonalLoop=1;jettySize=auto;html=1;" parent="1" source="Buz3wt09EOpWGdU0lARC-10" target="Buz3wt09EOpWGdU0lARC-4" edge="1">
          <mxGeometry relative="1" as="geometry">
            <Array as="points">
              <mxPoint x="170" y="415" />
              <mxPoint x="170" y="760" />
            </Array>
          </mxGeometry>
        </mxCell>
        <mxCell id="Buz3wt09EOpWGdU0lARC-10" value="Этот класс абстрактный?" style="strokeWidth=2;html=1;shape=mxgraph.flowchart.decision;whiteSpace=wrap;" parent="1" vertex="1">
          <mxGeometry x="240" y="380" width="280" height="70" as="geometry" />
        </mxCell>
        <mxCell id="Buz3wt09EOpWGdU0lARC-18" style="edgeStyle=orthogonalEdgeStyle;rounded=0;orthogonalLoop=1;jettySize=auto;html=1;" parent="1" source="Buz3wt09EOpWGdU0lARC-13" target="Buz3wt09EOpWGdU0lARC-1" edge="1">
          <mxGeometry relative="1" as="geometry" />
        </mxCell>
        <mxCell id="Buz3wt09EOpWGdU0lARC-13" value="Начало" style="strokeWidth=2;html=1;shape=mxgraph.flowchart.start_1;whiteSpace=wrap;" parent="1" vertex="1">
          <mxGeometry x="330" y="150" width="100" height="60" as="geometry" />
        </mxCell>
        <mxCell id="Buz3wt09EOpWGdU0lARC-14" value="Конец" style="strokeWidth=2;html=1;shape=mxgraph.flowchart.terminator;whiteSpace=wrap;" parent="1" vertex="1">
          <mxGeometry x="330" y="820" width="100" height="60" as="geometry" />
        </mxCell>
        <mxCell id="CawAfIm3Q9yhhVY6OOaU-1" value="&lt;div&gt;&lt;i&gt;&amp;lt;&amp;lt;interface&amp;gt;&amp;gt;&lt;/i&gt;&lt;/div&gt;&lt;i&gt;Speakable&lt;/i&gt;" style="swimlane;fontStyle=1;align=center;verticalAlign=top;childLayout=stackLayout;horizontal=1;startSize=40;horizontalStack=0;resizeParent=1;resizeParentMax=0;resizeLast=0;collapsible=1;marginBottom=0;whiteSpace=wrap;html=1;" parent="1" vertex="1">
          <mxGeometry x="987" y="240" width="160" height="66" as="geometry" />
        </mxCell>
        <mxCell id="CawAfIm3Q9yhhVY6OOaU-2" value="&lt;i&gt;+Speak()&lt;/i&gt;" style="text;strokeColor=none;fillColor=none;align=left;verticalAlign=top;spacingLeft=4;spacingRight=4;overflow=hidden;rotatable=0;points=[[0,0.5],[1,0.5]];portConstraint=eastwest;whiteSpace=wrap;html=1;" parent="CawAfIm3Q9yhhVY6OOaU-1" vertex="1">
          <mxGeometry y="40" width="160" height="26" as="geometry" />
        </mxCell>
        <mxCell id="CawAfIm3Q9yhhVY6OOaU-5" value="&lt;div&gt;&lt;i&gt;&amp;lt;&amp;lt;interface&amp;gt;&amp;gt;&lt;/i&gt;&lt;/div&gt;&lt;i&gt;Drawable&lt;/i&gt;" style="swimlane;fontStyle=1;align=center;verticalAlign=top;childLayout=stackLayout;horizontal=1;startSize=40;horizontalStack=0;resizeParent=1;resizeParentMax=0;resizeLast=0;collapsible=1;marginBottom=0;whiteSpace=wrap;html=1;" parent="1" vertex="1">
          <mxGeometry x="1210" y="240" width="160" height="66" as="geometry" />
        </mxCell>
        <mxCell id="CawAfIm3Q9yhhVY6OOaU-6" value="&lt;i&gt;+Draw()&lt;/i&gt;" style="text;strokeColor=none;fillColor=none;align=left;verticalAlign=top;spacingLeft=4;spacingRight=4;overflow=hidden;rotatable=0;points=[[0,0.5],[1,0.5]];portConstraint=eastwest;whiteSpace=wrap;html=1;" parent="CawAfIm3Q9yhhVY6OOaU-5" vertex="1">
          <mxGeometry y="40" width="160" height="26" as="geometry" />
        </mxCell>
        <mxCell id="CawAfIm3Q9yhhVY6OOaU-7" value="&lt;i&gt;Animal&lt;/i&gt;" style="swimlane;fontStyle=1;align=center;verticalAlign=top;childLayout=stackLayout;horizontal=1;startSize=26;horizontalStack=0;resizeParent=1;resizeParentMax=0;resizeLast=0;collapsible=1;marginBottom=0;whiteSpace=wrap;html=1;" parent="1" vertex="1">
          <mxGeometry x="1197" y="413" width="160" height="78" as="geometry" />
        </mxCell>
        <mxCell id="CawAfIm3Q9yhhVY6OOaU-8" value="+Eat()" style="text;strokeColor=none;fillColor=none;align=left;verticalAlign=top;spacingLeft=4;spacingRight=4;overflow=hidden;rotatable=0;points=[[0,0.5],[1,0.5]];portConstraint=eastwest;whiteSpace=wrap;html=1;" parent="CawAfIm3Q9yhhVY6OOaU-7" vertex="1">
          <mxGeometry y="26" width="160" height="26" as="geometry" />
        </mxCell>
        <mxCell id="CawAfIm3Q9yhhVY6OOaU-10" value="&lt;i&gt;+GetType():string&lt;/i&gt;" style="text;strokeColor=none;fillColor=none;align=left;verticalAlign=top;spacingLeft=4;spacingRight=4;overflow=hidden;rotatable=0;points=[[0,0.5],[1,0.5]];portConstraint=eastwest;whiteSpace=wrap;html=1;" parent="CawAfIm3Q9yhhVY6OOaU-7" vertex="1">
          <mxGeometry y="52" width="160" height="26" as="geometry" />
        </mxCell>
        <mxCell id="CawAfIm3Q9yhhVY6OOaU-11" value="Cat" style="swimlane;fontStyle=1;align=center;verticalAlign=top;childLayout=stackLayout;horizontal=1;startSize=26;horizontalStack=0;resizeParent=1;resizeParentMax=0;resizeLast=0;collapsible=1;marginBottom=0;whiteSpace=wrap;html=1;" parent="1" vertex="1">
          <mxGeometry x="987" y="540" width="160" height="104" as="geometry" />
        </mxCell>
        <mxCell id="CawAfIm3Q9yhhVY6OOaU-14" value="&lt;span&gt;+GetType():string&lt;/span&gt;" style="text;strokeColor=none;fillColor=none;align=left;verticalAlign=top;spacingLeft=4;spacingRight=4;overflow=hidden;rotatable=0;points=[[0,0.5],[1,0.5]];portConstraint=eastwest;whiteSpace=wrap;html=1;fontStyle=0" parent="CawAfIm3Q9yhhVY6OOaU-11" vertex="1">
          <mxGeometry y="26" width="160" height="26" as="geometry" />
        </mxCell>
        <mxCell id="CawAfIm3Q9yhhVY6OOaU-17" value="&lt;span&gt;+Draw()&lt;/span&gt;" style="text;strokeColor=none;fillColor=none;align=left;verticalAlign=top;spacingLeft=4;spacingRight=4;overflow=hidden;rotatable=0;points=[[0,0.5],[1,0.5]];portConstraint=eastwest;whiteSpace=wrap;html=1;fontStyle=0" parent="CawAfIm3Q9yhhVY6OOaU-11" vertex="1">
          <mxGeometry y="52" width="160" height="26" as="geometry" />
        </mxCell>
        <mxCell id="CawAfIm3Q9yhhVY6OOaU-18" value="&lt;span&gt;+Speak()&lt;/span&gt;" style="text;strokeColor=none;fillColor=none;align=left;verticalAlign=top;spacingLeft=4;spacingRight=4;overflow=hidden;rotatable=0;points=[[0,0.5],[1,0.5]];portConstraint=eastwest;whiteSpace=wrap;html=1;fontStyle=0" parent="CawAfIm3Q9yhhVY6OOaU-11" vertex="1">
          <mxGeometry y="78" width="160" height="26" as="geometry" />
        </mxCell>
        <mxCell id="CawAfIm3Q9yhhVY6OOaU-19" value="Fish" style="swimlane;fontStyle=1;align=center;verticalAlign=top;childLayout=stackLayout;horizontal=1;startSize=26;horizontalStack=0;resizeParent=1;resizeParentMax=0;resizeLast=0;collapsible=1;marginBottom=0;whiteSpace=wrap;html=1;" parent="1" vertex="1">
          <mxGeometry x="1397" y="540" width="160" height="78" as="geometry" />
        </mxCell>
        <mxCell id="CawAfIm3Q9yhhVY6OOaU-20" value="&lt;span&gt;+GetType():string&lt;/span&gt;" style="text;strokeColor=none;fillColor=none;align=left;verticalAlign=top;spacingLeft=4;spacingRight=4;overflow=hidden;rotatable=0;points=[[0,0.5],[1,0.5]];portConstraint=eastwest;whiteSpace=wrap;html=1;fontStyle=0" parent="CawAfIm3Q9yhhVY6OOaU-19" vertex="1">
          <mxGeometry y="26" width="160" height="26" as="geometry" />
        </mxCell>
        <mxCell id="CawAfIm3Q9yhhVY6OOaU-21" value="&lt;span&gt;+Draw()&lt;/span&gt;" style="text;strokeColor=none;fillColor=none;align=left;verticalAlign=top;spacingLeft=4;spacingRight=4;overflow=hidden;rotatable=0;points=[[0,0.5],[1,0.5]];portConstraint=eastwest;whiteSpace=wrap;html=1;fontStyle=0" parent="CawAfIm3Q9yhhVY6OOaU-19" vertex="1">
          <mxGeometry y="52" width="160" height="26" as="geometry" />
        </mxCell>
        <mxCell id="CawAfIm3Q9yhhVY6OOaU-23" value="" style="endArrow=block;dashed=1;endFill=0;endSize=12;html=1;rounded=0;" parent="1" source="CawAfIm3Q9yhhVY6OOaU-11" target="CawAfIm3Q9yhhVY6OOaU-1" edge="1">
          <mxGeometry width="160" relative="1" as="geometry">
            <mxPoint x="1077" y="357" as="sourcePoint" />
            <mxPoint x="1237" y="357" as="targetPoint" />
          </mxGeometry>
        </mxCell>
        <mxCell id="CawAfIm3Q9yhhVY6OOaU-24" value="" style="endArrow=block;dashed=1;endFill=0;endSize=12;html=1;rounded=0;edgeStyle=orthogonalEdgeStyle;" parent="1" source="CawAfIm3Q9yhhVY6OOaU-19" target="CawAfIm3Q9yhhVY6OOaU-5" edge="1">
          <mxGeometry width="160" relative="1" as="geometry">
            <mxPoint x="1197" y="413" as="sourcePoint" />
            <mxPoint x="1197" y="323" as="targetPoint" />
            <Array as="points">
              <mxPoint x="1460" y="350" />
              <mxPoint x="1330" y="350" />
            </Array>
          </mxGeometry>
        </mxCell>
        <mxCell id="CawAfIm3Q9yhhVY6OOaU-25" value="" style="endArrow=block;dashed=1;endFill=0;endSize=12;html=1;rounded=0;edgeStyle=orthogonalEdgeStyle;" parent="1" source="CawAfIm3Q9yhhVY6OOaU-11" target="CawAfIm3Q9yhhVY6OOaU-5" edge="1">
          <mxGeometry width="160" relative="1" as="geometry">
            <mxPoint x="1197" y="413" as="sourcePoint" />
            <mxPoint x="1197" y="323" as="targetPoint" />
            <Array as="points">
              <mxPoint x="1120" y="350" />
              <mxPoint x="1260" y="350" />
            </Array>
          </mxGeometry>
        </mxCell>
        <mxCell id="CawAfIm3Q9yhhVY6OOaU-26" value="Extends" style="endArrow=block;endSize=16;endFill=0;html=1;rounded=0;" parent="1" source="CawAfIm3Q9yhhVY6OOaU-11" target="CawAfIm3Q9yhhVY6OOaU-7" edge="1">
          <mxGeometry width="160" relative="1" as="geometry">
            <mxPoint x="1127" y="547" as="sourcePoint" />
            <mxPoint x="1287" y="547" as="targetPoint" />
          </mxGeometry>
        </mxCell>
        <mxCell id="CawAfIm3Q9yhhVY6OOaU-27" value="Extends" style="endArrow=block;endSize=16;endFill=0;html=1;rounded=0;" parent="1" source="CawAfIm3Q9yhhVY6OOaU-19" target="CawAfIm3Q9yhhVY6OOaU-7" edge="1">
          <mxGeometry width="160" relative="1" as="geometry">
            <mxPoint x="1127" y="547" as="sourcePoint" />
            <mxPoint x="1287" y="547" as="targetPoint" />
          </mxGeometry>
        </mxCell>
        <mxCell id="CawAfIm3Q9yhhVY6OOaU-28" value="&lt;div&gt;&lt;i&gt;&amp;lt;&amp;lt;interface&amp;gt;&amp;gt;&lt;/i&gt;&lt;/div&gt;&lt;i&gt;Speakable&lt;/i&gt;" style="swimlane;fontStyle=1;align=center;verticalAlign=top;childLayout=stackLayout;horizontal=1;startSize=40;horizontalStack=0;resizeParent=1;resizeParentMax=0;resizeLast=0;collapsible=1;marginBottom=0;whiteSpace=wrap;html=1;" parent="1" vertex="1">
          <mxGeometry x="1670" y="232" width="160" height="66" as="geometry" />
        </mxCell>
        <mxCell id="CawAfIm3Q9yhhVY6OOaU-29" value="&lt;i&gt;+Speak()&lt;/i&gt;" style="text;strokeColor=none;fillColor=none;align=left;verticalAlign=top;spacingLeft=4;spacingRight=4;overflow=hidden;rotatable=0;points=[[0,0.5],[1,0.5]];portConstraint=eastwest;whiteSpace=wrap;html=1;" parent="CawAfIm3Q9yhhVY6OOaU-28" vertex="1">
          <mxGeometry y="40" width="160" height="26" as="geometry" />
        </mxCell>
        <mxCell id="CawAfIm3Q9yhhVY6OOaU-30" value="&lt;div&gt;&lt;i&gt;&amp;lt;&amp;lt;interface&amp;gt;&amp;gt;&lt;/i&gt;&lt;/div&gt;&lt;i&gt;Drawable&lt;/i&gt;" style="swimlane;fontStyle=1;align=center;verticalAlign=top;childLayout=stackLayout;horizontal=1;startSize=40;horizontalStack=0;resizeParent=1;resizeParentMax=0;resizeLast=0;collapsible=1;marginBottom=0;whiteSpace=wrap;html=1;" parent="1" vertex="1">
          <mxGeometry x="1910" y="314" width="120" height="66" as="geometry" />
        </mxCell>
        <mxCell id="CawAfIm3Q9yhhVY6OOaU-31" value="&lt;i&gt;+Draw()&lt;/i&gt;" style="text;strokeColor=none;fillColor=none;align=left;verticalAlign=top;spacingLeft=4;spacingRight=4;overflow=hidden;rotatable=0;points=[[0,0.5],[1,0.5]];portConstraint=eastwest;whiteSpace=wrap;html=1;" parent="CawAfIm3Q9yhhVY6OOaU-30" vertex="1">
          <mxGeometry y="40" width="120" height="26" as="geometry" />
        </mxCell>
        <mxCell id="CawAfIm3Q9yhhVY6OOaU-32" value="&lt;i&gt;Animal&lt;/i&gt;" style="swimlane;fontStyle=1;align=center;verticalAlign=top;childLayout=stackLayout;horizontal=1;startSize=26;horizontalStack=0;resizeParent=1;resizeParentMax=0;resizeLast=0;collapsible=1;marginBottom=0;whiteSpace=wrap;html=1;" parent="1" vertex="1">
          <mxGeometry x="1890" y="172" width="160" height="78" as="geometry" />
        </mxCell>
        <mxCell id="CawAfIm3Q9yhhVY6OOaU-33" value="+Eat()" style="text;strokeColor=none;fillColor=none;align=left;verticalAlign=top;spacingLeft=4;spacingRight=4;overflow=hidden;rotatable=0;points=[[0,0.5],[1,0.5]];portConstraint=eastwest;whiteSpace=wrap;html=1;" parent="CawAfIm3Q9yhhVY6OOaU-32" vertex="1">
          <mxGeometry y="26" width="160" height="26" as="geometry" />
        </mxCell>
        <mxCell id="CawAfIm3Q9yhhVY6OOaU-34" value="&lt;i&gt;+GetType():string&lt;/i&gt;" style="text;strokeColor=none;fillColor=none;align=left;verticalAlign=top;spacingLeft=4;spacingRight=4;overflow=hidden;rotatable=0;points=[[0,0.5],[1,0.5]];portConstraint=eastwest;whiteSpace=wrap;html=1;" parent="CawAfIm3Q9yhhVY6OOaU-32" vertex="1">
          <mxGeometry y="52" width="160" height="26" as="geometry" />
        </mxCell>
        <mxCell id="CawAfIm3Q9yhhVY6OOaU-35" value="Cat" style="swimlane;fontStyle=1;align=center;verticalAlign=top;childLayout=stackLayout;horizontal=1;startSize=26;horizontalStack=0;resizeParent=1;resizeParentMax=0;resizeLast=0;collapsible=1;marginBottom=0;whiteSpace=wrap;html=1;" parent="1" vertex="1">
          <mxGeometry x="1670" y="380" width="160" height="104" as="geometry" />
        </mxCell>
        <mxCell id="CawAfIm3Q9yhhVY6OOaU-36" value="&lt;span&gt;+GetType():string&lt;/span&gt;" style="text;strokeColor=none;fillColor=none;align=left;verticalAlign=top;spacingLeft=4;spacingRight=4;overflow=hidden;rotatable=0;points=[[0,0.5],[1,0.5]];portConstraint=eastwest;whiteSpace=wrap;html=1;fontStyle=0" parent="CawAfIm3Q9yhhVY6OOaU-35" vertex="1">
          <mxGeometry y="26" width="160" height="26" as="geometry" />
        </mxCell>
        <mxCell id="CawAfIm3Q9yhhVY6OOaU-37" value="&lt;span&gt;+Draw()&lt;/span&gt;" style="text;strokeColor=none;fillColor=none;align=left;verticalAlign=top;spacingLeft=4;spacingRight=4;overflow=hidden;rotatable=0;points=[[0,0.5],[1,0.5]];portConstraint=eastwest;whiteSpace=wrap;html=1;fontStyle=0" parent="CawAfIm3Q9yhhVY6OOaU-35" vertex="1">
          <mxGeometry y="52" width="160" height="26" as="geometry" />
        </mxCell>
        <mxCell id="CawAfIm3Q9yhhVY6OOaU-38" value="&lt;span&gt;+Speak()&lt;/span&gt;" style="text;strokeColor=none;fillColor=none;align=left;verticalAlign=top;spacingLeft=4;spacingRight=4;overflow=hidden;rotatable=0;points=[[0,0.5],[1,0.5]];portConstraint=eastwest;whiteSpace=wrap;html=1;fontStyle=0" parent="CawAfIm3Q9yhhVY6OOaU-35" vertex="1">
          <mxGeometry y="78" width="160" height="26" as="geometry" />
        </mxCell>
        <mxCell id="CawAfIm3Q9yhhVY6OOaU-39" value="Fish" style="swimlane;fontStyle=1;align=center;verticalAlign=top;childLayout=stackLayout;horizontal=1;startSize=26;horizontalStack=0;resizeParent=1;resizeParentMax=0;resizeLast=0;collapsible=1;marginBottom=0;whiteSpace=wrap;html=1;" parent="1" vertex="1">
          <mxGeometry x="2100" y="395" width="160" height="78" as="geometry" />
        </mxCell>
        <mxCell id="CawAfIm3Q9yhhVY6OOaU-40" value="&lt;span&gt;+GetType():string&lt;/span&gt;" style="text;strokeColor=none;fillColor=none;align=left;verticalAlign=top;spacingLeft=4;spacingRight=4;overflow=hidden;rotatable=0;points=[[0,0.5],[1,0.5]];portConstraint=eastwest;whiteSpace=wrap;html=1;fontStyle=0" parent="CawAfIm3Q9yhhVY6OOaU-39" vertex="1">
          <mxGeometry y="26" width="160" height="26" as="geometry" />
        </mxCell>
        <mxCell id="CawAfIm3Q9yhhVY6OOaU-41" value="&lt;span&gt;+Draw()&lt;/span&gt;" style="text;strokeColor=none;fillColor=none;align=left;verticalAlign=top;spacingLeft=4;spacingRight=4;overflow=hidden;rotatable=0;points=[[0,0.5],[1,0.5]];portConstraint=eastwest;whiteSpace=wrap;html=1;fontStyle=0" parent="CawAfIm3Q9yhhVY6OOaU-39" vertex="1">
          <mxGeometry y="52" width="160" height="26" as="geometry" />
        </mxCell>
        <mxCell id="CawAfIm3Q9yhhVY6OOaU-42" value="" style="endArrow=block;dashed=1;endFill=0;endSize=12;html=1;rounded=0;" parent="1" source="CawAfIm3Q9yhhVY6OOaU-35" target="CawAfIm3Q9yhhVY6OOaU-28" edge="1">
          <mxGeometry width="160" relative="1" as="geometry">
            <mxPoint x="1690" y="333" as="sourcePoint" />
            <mxPoint x="1850" y="333" as="targetPoint" />
          </mxGeometry>
        </mxCell>
        <mxCell id="CawAfIm3Q9yhhVY6OOaU-43" value="" style="endArrow=block;dashed=1;endFill=0;endSize=12;html=1;rounded=0;fillColor=#e51400;strokeColor=#B20000;strokeWidth=3;" parent="1" source="CawAfIm3Q9yhhVY6OOaU-39" target="CawAfIm3Q9yhhVY6OOaU-30" edge="1">
          <mxGeometry width="160" relative="1" as="geometry">
            <mxPoint x="1810" y="389" as="sourcePoint" />
            <mxPoint x="1810" y="299" as="targetPoint" />
          </mxGeometry>
        </mxCell>
        <mxCell id="CawAfIm3Q9yhhVY6OOaU-44" value="" style="endArrow=block;dashed=1;endFill=0;endSize=12;html=1;rounded=0;fillColor=#e51400;strokeColor=#B20000;strokeWidth=3;" parent="1" source="CawAfIm3Q9yhhVY6OOaU-35" target="CawAfIm3Q9yhhVY6OOaU-30" edge="1">
          <mxGeometry width="160" relative="1" as="geometry">
            <mxPoint x="1810" y="389" as="sourcePoint" />
            <mxPoint x="1810" y="299" as="targetPoint" />
          </mxGeometry>
        </mxCell>
        <mxCell id="CawAfIm3Q9yhhVY6OOaU-45" value="Extends" style="endArrow=block;endSize=16;endFill=0;html=1;rounded=0;fillColor=#e51400;strokeColor=#B20000;strokeWidth=3;" parent="1" source="CawAfIm3Q9yhhVY6OOaU-35" target="CawAfIm3Q9yhhVY6OOaU-32" edge="1">
          <mxGeometry width="160" relative="1" as="geometry">
            <mxPoint x="1740" y="523" as="sourcePoint" />
            <mxPoint x="1900" y="523" as="targetPoint" />
          </mxGeometry>
        </mxCell>
        <mxCell id="CawAfIm3Q9yhhVY6OOaU-46" value="Extends" style="endArrow=block;endSize=16;endFill=0;html=1;rounded=0;fillColor=#e51400;strokeColor=#B20000;strokeWidth=3;" parent="1" source="CawAfIm3Q9yhhVY6OOaU-39" target="CawAfIm3Q9yhhVY6OOaU-32" edge="1">
          <mxGeometry width="160" relative="1" as="geometry">
            <mxPoint x="1740" y="523" as="sourcePoint" />
            <mxPoint x="1900" y="523" as="targetPoint" />
          </mxGeometry>
        </mxCell>
        <mxCell id="CawAfIm3Q9yhhVY6OOaU-47" value="CatFish" style="swimlane;fontStyle=1;align=center;verticalAlign=top;childLayout=stackLayout;horizontal=1;startSize=26;horizontalStack=0;resizeParent=1;resizeParentMax=0;resizeLast=0;collapsible=1;marginBottom=0;whiteSpace=wrap;html=1;fillColor=#f8cecc;strokeColor=#b85450;" parent="1" vertex="1">
          <mxGeometry x="1880" y="540" width="160" height="104" as="geometry" />
        </mxCell>
        <mxCell id="CawAfIm3Q9yhhVY6OOaU-48" value="&lt;span&gt;+GetType():string&lt;/span&gt;" style="text;strokeColor=none;fillColor=none;align=left;verticalAlign=top;spacingLeft=4;spacingRight=4;overflow=hidden;rotatable=0;points=[[0,0.5],[1,0.5]];portConstraint=eastwest;whiteSpace=wrap;html=1;fontStyle=0" parent="CawAfIm3Q9yhhVY6OOaU-47" vertex="1">
          <mxGeometry y="26" width="160" height="26" as="geometry" />
        </mxCell>
        <mxCell id="CawAfIm3Q9yhhVY6OOaU-49" value="&lt;span&gt;+Draw()&lt;/span&gt;" style="text;strokeColor=none;fillColor=none;align=left;verticalAlign=top;spacingLeft=4;spacingRight=4;overflow=hidden;rotatable=0;points=[[0,0.5],[1,0.5]];portConstraint=eastwest;whiteSpace=wrap;html=1;fontStyle=0" parent="CawAfIm3Q9yhhVY6OOaU-47" vertex="1">
          <mxGeometry y="52" width="160" height="26" as="geometry" />
        </mxCell>
        <mxCell id="CawAfIm3Q9yhhVY6OOaU-50" value="&lt;span&gt;+Speak()&lt;/span&gt;" style="text;strokeColor=none;fillColor=none;align=left;verticalAlign=top;spacingLeft=4;spacingRight=4;overflow=hidden;rotatable=0;points=[[0,0.5],[1,0.5]];portConstraint=eastwest;whiteSpace=wrap;html=1;fontStyle=0" parent="CawAfIm3Q9yhhVY6OOaU-47" vertex="1">
          <mxGeometry y="78" width="160" height="26" as="geometry" />
        </mxCell>
        <mxCell id="CawAfIm3Q9yhhVY6OOaU-51" value="Extends" style="endArrow=block;endSize=16;endFill=0;html=1;rounded=0;fillColor=#e51400;strokeColor=#B20000;strokeWidth=3;" parent="1" source="CawAfIm3Q9yhhVY6OOaU-47" target="CawAfIm3Q9yhhVY6OOaU-35" edge="1">
          <mxGeometry width="160" relative="1" as="geometry">
            <mxPoint x="1660" y="590" as="sourcePoint" />
            <mxPoint x="1820" y="590" as="targetPoint" />
          </mxGeometry>
        </mxCell>
        <mxCell id="CawAfIm3Q9yhhVY6OOaU-52" value="Extends" style="endArrow=block;endSize=16;endFill=0;html=1;rounded=0;fillColor=#e51400;strokeColor=#B20000;strokeWidth=3;" parent="1" source="CawAfIm3Q9yhhVY6OOaU-47" target="CawAfIm3Q9yhhVY6OOaU-39" edge="1">
          <mxGeometry width="160" relative="1" as="geometry">
            <mxPoint x="1660" y="590" as="sourcePoint" />
            <mxPoint x="1820" y="590" as="targetPoint" />
          </mxGeometry>
        </mxCell>
        <mxCell id="CawAfIm3Q9yhhVY6OOaU-53" value="&lt;div&gt;&lt;i&gt;&amp;lt;&amp;lt;interface&amp;gt;&amp;gt;&lt;/i&gt;&lt;/div&gt;&lt;i&gt;Speakable&lt;/i&gt;" style="swimlane;fontStyle=1;align=center;verticalAlign=top;childLayout=stackLayout;horizontal=1;startSize=40;horizontalStack=0;resizeParent=1;resizeParentMax=0;resizeLast=0;collapsible=1;marginBottom=0;whiteSpace=wrap;html=1;" parent="1" vertex="1">
          <mxGeometry x="1675" y="792" width="160" height="66" as="geometry" />
        </mxCell>
        <mxCell id="CawAfIm3Q9yhhVY6OOaU-54" value="&lt;i&gt;+Speak()&lt;/i&gt;" style="text;strokeColor=none;fillColor=none;align=left;verticalAlign=top;spacingLeft=4;spacingRight=4;overflow=hidden;rotatable=0;points=[[0,0.5],[1,0.5]];portConstraint=eastwest;whiteSpace=wrap;html=1;" parent="CawAfIm3Q9yhhVY6OOaU-53" vertex="1">
          <mxGeometry y="40" width="160" height="26" as="geometry" />
        </mxCell>
        <mxCell id="CawAfIm3Q9yhhVY6OOaU-55" value="&lt;div&gt;&lt;i&gt;&amp;lt;&amp;lt;interface&amp;gt;&amp;gt;&lt;/i&gt;&lt;/div&gt;&lt;i&gt;Drawable&lt;/i&gt;" style="swimlane;fontStyle=1;align=center;verticalAlign=top;childLayout=stackLayout;horizontal=1;startSize=40;horizontalStack=0;resizeParent=1;resizeParentMax=0;resizeLast=0;collapsible=1;marginBottom=0;whiteSpace=wrap;html=1;" parent="1" vertex="1">
          <mxGeometry x="1920" y="962" width="120" height="66" as="geometry" />
        </mxCell>
        <mxCell id="CawAfIm3Q9yhhVY6OOaU-56" value="&lt;i&gt;+Draw()&lt;/i&gt;" style="text;strokeColor=none;fillColor=none;align=left;verticalAlign=top;spacingLeft=4;spacingRight=4;overflow=hidden;rotatable=0;points=[[0,0.5],[1,0.5]];portConstraint=eastwest;whiteSpace=wrap;html=1;" parent="CawAfIm3Q9yhhVY6OOaU-55" vertex="1">
          <mxGeometry y="40" width="120" height="26" as="geometry" />
        </mxCell>
        <mxCell id="CawAfIm3Q9yhhVY6OOaU-57" value="&lt;i&gt;Animal&lt;/i&gt;" style="swimlane;fontStyle=1;align=center;verticalAlign=top;childLayout=stackLayout;horizontal=1;startSize=26;horizontalStack=0;resizeParent=1;resizeParentMax=0;resizeLast=0;collapsible=1;marginBottom=0;whiteSpace=wrap;html=1;" parent="1" vertex="1">
          <mxGeometry x="1910" y="780" width="160" height="78" as="geometry" />
        </mxCell>
        <mxCell id="CawAfIm3Q9yhhVY6OOaU-58" value="+Eat()" style="text;strokeColor=none;fillColor=none;align=left;verticalAlign=top;spacingLeft=4;spacingRight=4;overflow=hidden;rotatable=0;points=[[0,0.5],[1,0.5]];portConstraint=eastwest;whiteSpace=wrap;html=1;" parent="CawAfIm3Q9yhhVY6OOaU-57" vertex="1">
          <mxGeometry y="26" width="160" height="26" as="geometry" />
        </mxCell>
        <mxCell id="CawAfIm3Q9yhhVY6OOaU-59" value="&lt;i&gt;+GetType():string&lt;/i&gt;" style="text;strokeColor=none;fillColor=none;align=left;verticalAlign=top;spacingLeft=4;spacingRight=4;overflow=hidden;rotatable=0;points=[[0,0.5],[1,0.5]];portConstraint=eastwest;whiteSpace=wrap;html=1;" parent="CawAfIm3Q9yhhVY6OOaU-57" vertex="1">
          <mxGeometry y="52" width="160" height="26" as="geometry" />
        </mxCell>
        <mxCell id="CawAfIm3Q9yhhVY6OOaU-60" value="Cat" style="swimlane;fontStyle=1;align=center;verticalAlign=top;childLayout=stackLayout;horizontal=1;startSize=26;horizontalStack=0;resizeParent=1;resizeParentMax=0;resizeLast=0;collapsible=1;marginBottom=0;whiteSpace=wrap;html=1;" parent="1" vertex="1">
          <mxGeometry x="1675" y="1028" width="160" height="104" as="geometry" />
        </mxCell>
        <mxCell id="CawAfIm3Q9yhhVY6OOaU-61" value="&lt;span&gt;+GetType():string&lt;/span&gt;" style="text;strokeColor=none;fillColor=none;align=left;verticalAlign=top;spacingLeft=4;spacingRight=4;overflow=hidden;rotatable=0;points=[[0,0.5],[1,0.5]];portConstraint=eastwest;whiteSpace=wrap;html=1;fontStyle=0" parent="CawAfIm3Q9yhhVY6OOaU-60" vertex="1">
          <mxGeometry y="26" width="160" height="26" as="geometry" />
        </mxCell>
        <mxCell id="CawAfIm3Q9yhhVY6OOaU-62" value="&lt;span&gt;+Draw()&lt;/span&gt;" style="text;strokeColor=none;fillColor=none;align=left;verticalAlign=top;spacingLeft=4;spacingRight=4;overflow=hidden;rotatable=0;points=[[0,0.5],[1,0.5]];portConstraint=eastwest;whiteSpace=wrap;html=1;fontStyle=0" parent="CawAfIm3Q9yhhVY6OOaU-60" vertex="1">
          <mxGeometry y="52" width="160" height="26" as="geometry" />
        </mxCell>
        <mxCell id="CawAfIm3Q9yhhVY6OOaU-63" value="&lt;span&gt;+Speak()&lt;/span&gt;" style="text;strokeColor=none;fillColor=none;align=left;verticalAlign=top;spacingLeft=4;spacingRight=4;overflow=hidden;rotatable=0;points=[[0,0.5],[1,0.5]];portConstraint=eastwest;whiteSpace=wrap;html=1;fontStyle=0" parent="CawAfIm3Q9yhhVY6OOaU-60" vertex="1">
          <mxGeometry y="78" width="160" height="26" as="geometry" />
        </mxCell>
        <mxCell id="CawAfIm3Q9yhhVY6OOaU-64" value="Fish" style="swimlane;fontStyle=1;align=center;verticalAlign=top;childLayout=stackLayout;horizontal=1;startSize=26;horizontalStack=0;resizeParent=1;resizeParentMax=0;resizeLast=0;collapsible=1;marginBottom=0;whiteSpace=wrap;html=1;" parent="1" vertex="1">
          <mxGeometry x="2105" y="1043" width="160" height="78" as="geometry" />
        </mxCell>
        <mxCell id="CawAfIm3Q9yhhVY6OOaU-65" value="&lt;span&gt;+GetType():string&lt;/span&gt;" style="text;strokeColor=none;fillColor=none;align=left;verticalAlign=top;spacingLeft=4;spacingRight=4;overflow=hidden;rotatable=0;points=[[0,0.5],[1,0.5]];portConstraint=eastwest;whiteSpace=wrap;html=1;fontStyle=0" parent="CawAfIm3Q9yhhVY6OOaU-64" vertex="1">
          <mxGeometry y="26" width="160" height="26" as="geometry" />
        </mxCell>
        <mxCell id="CawAfIm3Q9yhhVY6OOaU-66" value="&lt;span&gt;+Draw()&lt;/span&gt;" style="text;strokeColor=none;fillColor=none;align=left;verticalAlign=top;spacingLeft=4;spacingRight=4;overflow=hidden;rotatable=0;points=[[0,0.5],[1,0.5]];portConstraint=eastwest;whiteSpace=wrap;html=1;fontStyle=0" parent="CawAfIm3Q9yhhVY6OOaU-64" vertex="1">
          <mxGeometry y="52" width="160" height="26" as="geometry" />
        </mxCell>
        <mxCell id="CawAfIm3Q9yhhVY6OOaU-67" value="" style="endArrow=block;dashed=1;endFill=0;endSize=12;html=1;rounded=0;" parent="1" source="CawAfIm3Q9yhhVY6OOaU-60" target="CawAfIm3Q9yhhVY6OOaU-53" edge="1">
          <mxGeometry width="160" relative="1" as="geometry">
            <mxPoint x="1695" y="981" as="sourcePoint" />
            <mxPoint x="1855" y="981" as="targetPoint" />
          </mxGeometry>
        </mxCell>
        <mxCell id="CawAfIm3Q9yhhVY6OOaU-68" value="virtual" style="endArrow=block;dashed=1;endFill=0;endSize=12;html=1;rounded=0;fillColor=#1ba1e2;strokeColor=#006EAF;strokeWidth=1;" parent="1" source="CawAfIm3Q9yhhVY6OOaU-64" target="CawAfIm3Q9yhhVY6OOaU-55" edge="1">
          <mxGeometry x="0.0041" width="160" relative="1" as="geometry">
            <mxPoint x="1815" y="1037" as="sourcePoint" />
            <mxPoint x="1815" y="947" as="targetPoint" />
            <mxPoint as="offset" />
          </mxGeometry>
        </mxCell>
        <mxCell id="CawAfIm3Q9yhhVY6OOaU-69" value="virtual" style="endArrow=block;dashed=1;endFill=0;endSize=12;html=1;rounded=0;fillColor=#1ba1e2;strokeColor=#006EAF;strokeWidth=1;" parent="1" source="CawAfIm3Q9yhhVY6OOaU-60" target="CawAfIm3Q9yhhVY6OOaU-55" edge="1">
          <mxGeometry width="160" relative="1" as="geometry">
            <mxPoint x="1815" y="1037" as="sourcePoint" />
            <mxPoint x="1815" y="947" as="targetPoint" />
          </mxGeometry>
        </mxCell>
        <mxCell id="CawAfIm3Q9yhhVY6OOaU-70" value="Extends (virtual)" style="endArrow=block;endSize=16;endFill=0;html=1;rounded=0;fillColor=#1ba1e2;strokeColor=#006EAF;strokeWidth=1;" parent="1" source="CawAfIm3Q9yhhVY6OOaU-60" target="CawAfIm3Q9yhhVY6OOaU-57" edge="1">
          <mxGeometry width="160" relative="1" as="geometry">
            <mxPoint x="1745" y="1171" as="sourcePoint" />
            <mxPoint x="1905" y="1171" as="targetPoint" />
          </mxGeometry>
        </mxCell>
        <mxCell id="CawAfIm3Q9yhhVY6OOaU-71" value="Extends (virtual)" style="endArrow=block;endSize=16;endFill=0;html=1;rounded=0;fillColor=#1ba1e2;strokeColor=#006EAF;strokeWidth=1;" parent="1" source="CawAfIm3Q9yhhVY6OOaU-64" target="CawAfIm3Q9yhhVY6OOaU-57" edge="1">
          <mxGeometry width="160" relative="1" as="geometry">
            <mxPoint x="1745" y="1171" as="sourcePoint" />
            <mxPoint x="1905" y="1171" as="targetPoint" />
          </mxGeometry>
        </mxCell>
        <mxCell id="CawAfIm3Q9yhhVY6OOaU-72" value="CatFish" style="swimlane;fontStyle=1;align=center;verticalAlign=top;childLayout=stackLayout;horizontal=1;startSize=26;horizontalStack=0;resizeParent=1;resizeParentMax=0;resizeLast=0;collapsible=1;marginBottom=0;whiteSpace=wrap;html=1;fillColor=#f8cecc;strokeColor=#b85450;" parent="1" vertex="1">
          <mxGeometry x="1885" y="1188" width="160" height="104" as="geometry" />
        </mxCell>
        <mxCell id="CawAfIm3Q9yhhVY6OOaU-73" value="&lt;span&gt;+GetType():string&lt;/span&gt;" style="text;strokeColor=none;fillColor=none;align=left;verticalAlign=top;spacingLeft=4;spacingRight=4;overflow=hidden;rotatable=0;points=[[0,0.5],[1,0.5]];portConstraint=eastwest;whiteSpace=wrap;html=1;fontStyle=0" parent="CawAfIm3Q9yhhVY6OOaU-72" vertex="1">
          <mxGeometry y="26" width="160" height="26" as="geometry" />
        </mxCell>
        <mxCell id="CawAfIm3Q9yhhVY6OOaU-74" value="&lt;span&gt;+Draw()&lt;/span&gt;" style="text;strokeColor=none;fillColor=none;align=left;verticalAlign=top;spacingLeft=4;spacingRight=4;overflow=hidden;rotatable=0;points=[[0,0.5],[1,0.5]];portConstraint=eastwest;whiteSpace=wrap;html=1;fontStyle=0" parent="CawAfIm3Q9yhhVY6OOaU-72" vertex="1">
          <mxGeometry y="52" width="160" height="26" as="geometry" />
        </mxCell>
        <mxCell id="CawAfIm3Q9yhhVY6OOaU-75" value="&lt;span&gt;+Speak()&lt;/span&gt;" style="text;strokeColor=none;fillColor=none;align=left;verticalAlign=top;spacingLeft=4;spacingRight=4;overflow=hidden;rotatable=0;points=[[0,0.5],[1,0.5]];portConstraint=eastwest;whiteSpace=wrap;html=1;fontStyle=0" parent="CawAfIm3Q9yhhVY6OOaU-72" vertex="1">
          <mxGeometry y="78" width="160" height="26" as="geometry" />
        </mxCell>
        <mxCell id="CawAfIm3Q9yhhVY6OOaU-76" value="Extends" style="endArrow=block;endSize=16;endFill=0;html=1;rounded=0;fillColor=#1ba1e2;strokeColor=#006EAF;strokeWidth=1;" parent="1" source="CawAfIm3Q9yhhVY6OOaU-72" target="CawAfIm3Q9yhhVY6OOaU-60" edge="1">
          <mxGeometry width="160" relative="1" as="geometry">
            <mxPoint x="1665" y="1238" as="sourcePoint" />
            <mxPoint x="1825" y="1238" as="targetPoint" />
          </mxGeometry>
        </mxCell>
        <mxCell id="CawAfIm3Q9yhhVY6OOaU-77" value="Extends" style="endArrow=block;endSize=16;endFill=0;html=1;rounded=0;fillColor=#1ba1e2;strokeColor=#006EAF;strokeWidth=1;" parent="1" source="CawAfIm3Q9yhhVY6OOaU-72" target="CawAfIm3Q9yhhVY6OOaU-64" edge="1">
          <mxGeometry x="0.0061" width="160" relative="1" as="geometry">
            <mxPoint x="1665" y="1238" as="sourcePoint" />
            <mxPoint x="1825" y="1238" as="targetPoint" />
            <mxPoint as="offset" />
          </mxGeometry>
        </mxCell>
        <mxCell id="r5klLoDjx4hmF9z2d2eS-1" value="Да" style="edgeStyle=orthogonalEdgeStyle;rounded=0;orthogonalLoop=1;jettySize=auto;html=1;" parent="1" source="r5klLoDjx4hmF9z2d2eS-3" target="r5klLoDjx4hmF9z2d2eS-6" edge="1">
          <mxGeometry relative="1" as="geometry">
            <mxPoint x="540" y="1190" as="targetPoint" />
          </mxGeometry>
        </mxCell>
        <mxCell id="r5klLoDjx4hmF9z2d2eS-2" value="Нет" style="edgeStyle=orthogonalEdgeStyle;rounded=0;orthogonalLoop=1;jettySize=auto;html=1;" parent="1" source="r5klLoDjx4hmF9z2d2eS-3" target="r5klLoDjx4hmF9z2d2eS-12" edge="1">
          <mxGeometry relative="1" as="geometry" />
        </mxCell>
        <mxCell id="r5klLoDjx4hmF9z2d2eS-3" value="У класса будут наследники?" style="strokeWidth=2;html=1;shape=mxgraph.flowchart.decision;whiteSpace=wrap;" parent="1" vertex="1">
          <mxGeometry x="240" y="1040" width="259.88" height="70" as="geometry" />
        </mxCell>
        <mxCell id="r5klLoDjx4hmF9z2d2eS-4" value="Да" style="edgeStyle=orthogonalEdgeStyle;rounded=0;orthogonalLoop=1;jettySize=auto;html=1;exitX=0;exitY=0.5;exitDx=0;exitDy=0;exitPerimeter=0;" parent="1" source="r5klLoDjx4hmF9z2d2eS-6" target="r5klLoDjx4hmF9z2d2eS-8" edge="1">
          <mxGeometry relative="1" as="geometry" />
        </mxCell>
        <mxCell id="r5klLoDjx4hmF9z2d2eS-5" value="Нет" style="edgeStyle=orthogonalEdgeStyle;rounded=0;orthogonalLoop=1;jettySize=auto;html=1;" parent="1" source="r5klLoDjx4hmF9z2d2eS-6" target="r5klLoDjx4hmF9z2d2eS-15" edge="1">
          <mxGeometry relative="1" as="geometry">
            <Array as="points">
              <mxPoint x="600" y="1218" />
            </Array>
          </mxGeometry>
        </mxCell>
        <mxCell id="r5klLoDjx4hmF9z2d2eS-6" value="&lt;div style=&quot;font-size: 21px;&quot;&gt;&lt;br&gt;&lt;/div&gt;Наследники&amp;nbsp;будут удаляться&lt;div&gt;полиморфно, используя указатель&lt;/div&gt;&lt;div&gt;на этот класс?&lt;/div&gt;" style="strokeWidth=2;html=1;shape=mxgraph.flowchart.decision;whiteSpace=wrap;verticalAlign=top;" parent="1" vertex="1">
          <mxGeometry x="209.88" y="1169" width="320.12" height="98" as="geometry" />
        </mxCell>
        <mxCell id="r5klLoDjx4hmF9z2d2eS-7" style="edgeStyle=orthogonalEdgeStyle;rounded=0;orthogonalLoop=1;jettySize=auto;html=1;" parent="1" source="r5klLoDjx4hmF9z2d2eS-8" target="r5klLoDjx4hmF9z2d2eS-18" edge="1">
          <mxGeometry relative="1" as="geometry">
            <Array as="points">
              <mxPoint x="180" y="1480" />
              <mxPoint x="460" y="1480" />
            </Array>
          </mxGeometry>
        </mxCell>
        <mxCell id="r5klLoDjx4hmF9z2d2eS-8" value="Деструктор должен быть &lt;b&gt;публичным виртуальным&lt;/b&gt;" style="whiteSpace=wrap;html=1;strokeWidth=2;" parent="1" vertex="1">
          <mxGeometry x="80" y="1390" width="200" height="60" as="geometry" />
        </mxCell>
        <mxCell id="r5klLoDjx4hmF9z2d2eS-9" style="edgeStyle=orthogonalEdgeStyle;rounded=0;orthogonalLoop=1;jettySize=auto;html=1;" parent="1" source="r5klLoDjx4hmF9z2d2eS-10" target="r5klLoDjx4hmF9z2d2eS-18" edge="1">
          <mxGeometry relative="1" as="geometry">
            <Array as="points">
              <mxPoint x="460" y="1510" />
              <mxPoint x="460" y="1510" />
            </Array>
          </mxGeometry>
        </mxCell>
        <mxCell id="r5klLoDjx4hmF9z2d2eS-10" value="Деструктор должен быть&lt;div&gt;&lt;b&gt;защищённым невиртуальным&lt;/b&gt;&lt;/div&gt;" style="whiteSpace=wrap;html=1;strokeWidth=2;" parent="1" vertex="1">
          <mxGeometry x="340" y="1390" width="240" height="60" as="geometry" />
        </mxCell>
        <mxCell id="r5klLoDjx4hmF9z2d2eS-11" style="edgeStyle=orthogonalEdgeStyle;rounded=0;orthogonalLoop=1;jettySize=auto;html=1;" parent="1" source="r5klLoDjx4hmF9z2d2eS-12" target="r5klLoDjx4hmF9z2d2eS-18" edge="1">
          <mxGeometry relative="1" as="geometry">
            <Array as="points">
              <mxPoint x="765" y="1480" />
              <mxPoint x="460" y="1480" />
            </Array>
          </mxGeometry>
        </mxCell>
        <mxCell id="r5klLoDjx4hmF9z2d2eS-12" value="Деструктор должен быть &lt;b&gt;публичным невиртуальным&lt;/b&gt;" style="whiteSpace=wrap;html=1;strokeWidth=2;" parent="1" vertex="1">
          <mxGeometry x="680" y="1390" width="170" height="60" as="geometry" />
        </mxCell>
        <mxCell id="r5klLoDjx4hmF9z2d2eS-13" value="Нет" style="edgeStyle=orthogonalEdgeStyle;rounded=0;orthogonalLoop=1;jettySize=auto;html=1;" parent="1" source="r5klLoDjx4hmF9z2d2eS-15" target="r5klLoDjx4hmF9z2d2eS-10" edge="1">
          <mxGeometry relative="1" as="geometry">
            <mxPoint x="270" y="1120" as="sourcePoint" />
            <mxPoint x="130" y="1280" as="targetPoint" />
            <Array as="points">
              <mxPoint x="460" y="1295" />
            </Array>
          </mxGeometry>
        </mxCell>
        <mxCell id="r5klLoDjx4hmF9z2d2eS-14" value="Да" style="edgeStyle=orthogonalEdgeStyle;rounded=0;orthogonalLoop=1;jettySize=auto;html=1;" parent="1" source="r5klLoDjx4hmF9z2d2eS-15" target="r5klLoDjx4hmF9z2d2eS-12" edge="1">
          <mxGeometry relative="1" as="geometry">
            <Array as="points">
              <mxPoint x="730" y="1295" />
            </Array>
            <mxPoint x="60" y="1330" as="sourcePoint" />
            <mxPoint x="50" y="1460" as="targetPoint" />
          </mxGeometry>
        </mxCell>
        <mxCell id="r5klLoDjx4hmF9z2d2eS-15" value="&lt;div&gt;&lt;br&gt;&lt;/div&gt;Будут создаваться объекты&lt;div&gt;этого класса?&lt;/div&gt;" style="strokeWidth=2;html=1;shape=mxgraph.flowchart.decision;whiteSpace=wrap;" parent="1" vertex="1">
          <mxGeometry x="480" y="1260" width="239.76" height="70" as="geometry" />
        </mxCell>
        <mxCell id="r5klLoDjx4hmF9z2d2eS-16" style="edgeStyle=orthogonalEdgeStyle;rounded=0;orthogonalLoop=1;jettySize=auto;html=1;" parent="1" source="r5klLoDjx4hmF9z2d2eS-17" target="r5klLoDjx4hmF9z2d2eS-3" edge="1">
          <mxGeometry relative="1" as="geometry" />
        </mxCell>
        <mxCell id="r5klLoDjx4hmF9z2d2eS-17" value="Начало" style="strokeWidth=2;html=1;shape=mxgraph.flowchart.start_1;whiteSpace=wrap;" parent="1" vertex="1">
          <mxGeometry x="319.94" y="962" width="100" height="40" as="geometry" />
        </mxCell>
        <mxCell id="r5klLoDjx4hmF9z2d2eS-18" value="Конец" style="strokeWidth=2;html=1;shape=mxgraph.flowchart.terminator;whiteSpace=wrap;" parent="1" vertex="1">
          <mxGeometry x="410" y="1510" width="100" height="60" as="geometry" />
        </mxCell>
        <mxCell id="r5klLoDjx4hmF9z2d2eS-19" value="BaseHttpRequest" style="swimlane;fontStyle=1;align=center;verticalAlign=top;childLayout=stackLayout;horizontal=1;startSize=26;horizontalStack=0;resizeParent=1;resizeParentMax=0;resizeLast=0;collapsible=1;marginBottom=0;whiteSpace=wrap;html=1;" parent="1" vertex="1">
          <mxGeometry x="350" y="1730" width="240" height="78" as="geometry" />
        </mxCell>
        <mxCell id="r5klLoDjx4hmF9z2d2eS-20" value="+ target: string" style="text;strokeColor=none;fillColor=none;align=left;verticalAlign=top;spacingLeft=4;spacingRight=4;overflow=hidden;rotatable=0;points=[[0,0.5],[1,0.5]];portConstraint=eastwest;whiteSpace=wrap;html=1;" parent="r5klLoDjx4hmF9z2d2eS-19" vertex="1">
          <mxGeometry y="26" width="240" height="26" as="geometry" />
        </mxCell>
        <mxCell id="r5klLoDjx4hmF9z2d2eS-22" value="+ headers: unordered_map&amp;lt;string, string&amp;gt;" style="text;strokeColor=none;fillColor=none;align=left;verticalAlign=top;spacingLeft=4;spacingRight=4;overflow=hidden;rotatable=0;points=[[0,0.5],[1,0.5]];portConstraint=eastwest;whiteSpace=wrap;html=1;" parent="r5klLoDjx4hmF9z2d2eS-19" vertex="1">
          <mxGeometry y="52" width="240" height="26" as="geometry" />
        </mxCell>
        <mxCell id="r5klLoDjx4hmF9z2d2eS-27" value="GetRequest" style="swimlane;fontStyle=1;align=center;verticalAlign=top;childLayout=stackLayout;horizontal=1;startSize=26;horizontalStack=0;resizeParent=1;resizeParentMax=0;resizeLast=0;collapsible=1;marginBottom=0;whiteSpace=wrap;html=1;" parent="1" vertex="1">
          <mxGeometry x="160" y="1880" width="120" height="52" as="geometry" />
        </mxCell>
        <mxCell id="r5klLoDjx4hmF9z2d2eS-31" value="" style="endArrow=block;endSize=16;endFill=0;html=1;rounded=0;" parent="1" source="r5klLoDjx4hmF9z2d2eS-27" target="r5klLoDjx4hmF9z2d2eS-19" edge="1">
          <mxGeometry width="160" relative="1" as="geometry">
            <mxPoint x="350" y="1850" as="sourcePoint" />
            <mxPoint x="510" y="1850" as="targetPoint" />
          </mxGeometry>
        </mxCell>
        <mxCell id="r5klLoDjx4hmF9z2d2eS-32" value="PostRequest" style="swimlane;fontStyle=1;align=center;verticalAlign=top;childLayout=stackLayout;horizontal=1;startSize=26;horizontalStack=0;resizeParent=1;resizeParentMax=0;resizeLast=0;collapsible=1;marginBottom=0;whiteSpace=wrap;html=1;" parent="1" vertex="1">
          <mxGeometry x="320" y="1880" width="120" height="52" as="geometry" />
        </mxCell>
        <mxCell id="r5klLoDjx4hmF9z2d2eS-33" value="+ body: string" style="text;strokeColor=none;fillColor=none;align=left;verticalAlign=top;spacingLeft=4;spacingRight=4;overflow=hidden;rotatable=0;points=[[0,0.5],[1,0.5]];portConstraint=eastwest;whiteSpace=wrap;html=1;" parent="r5klLoDjx4hmF9z2d2eS-32" vertex="1">
          <mxGeometry y="26" width="120" height="26" as="geometry" />
        </mxCell>
        <mxCell id="r5klLoDjx4hmF9z2d2eS-34" value="" style="endArrow=block;endSize=16;endFill=0;html=1;rounded=0;" parent="1" source="r5klLoDjx4hmF9z2d2eS-32" target="r5klLoDjx4hmF9z2d2eS-19" edge="1">
          <mxGeometry width="160" relative="1" as="geometry">
            <mxPoint x="350" y="1850" as="sourcePoint" />
            <mxPoint x="510" y="1850" as="targetPoint" />
          </mxGeometry>
        </mxCell>
        <mxCell id="r5klLoDjx4hmF9z2d2eS-35" value="PutRequest" style="swimlane;fontStyle=1;align=center;verticalAlign=top;childLayout=stackLayout;horizontal=1;startSize=26;horizontalStack=0;resizeParent=1;resizeParentMax=0;resizeLast=0;collapsible=1;marginBottom=0;whiteSpace=wrap;html=1;" parent="1" vertex="1">
          <mxGeometry x="480" y="1880" width="120" height="52" as="geometry" />
        </mxCell>
        <mxCell id="r5klLoDjx4hmF9z2d2eS-36" value="+ body: string" style="text;strokeColor=none;fillColor=none;align=left;verticalAlign=top;spacingLeft=4;spacingRight=4;overflow=hidden;rotatable=0;points=[[0,0.5],[1,0.5]];portConstraint=eastwest;whiteSpace=wrap;html=1;" parent="r5klLoDjx4hmF9z2d2eS-35" vertex="1">
          <mxGeometry y="26" width="120" height="26" as="geometry" />
        </mxCell>
        <mxCell id="r5klLoDjx4hmF9z2d2eS-37" value="DeleteRequest" style="swimlane;fontStyle=1;align=center;verticalAlign=top;childLayout=stackLayout;horizontal=1;startSize=26;horizontalStack=0;resizeParent=1;resizeParentMax=0;resizeLast=0;collapsible=1;marginBottom=0;whiteSpace=wrap;html=1;" parent="1" vertex="1">
          <mxGeometry x="640" y="1880" width="120" height="52" as="geometry" />
        </mxCell>
        <mxCell id="r5klLoDjx4hmF9z2d2eS-39" value="" style="endArrow=block;endSize=16;endFill=0;html=1;rounded=0;" parent="1" source="r5klLoDjx4hmF9z2d2eS-35" target="r5klLoDjx4hmF9z2d2eS-19" edge="1">
          <mxGeometry width="160" relative="1" as="geometry">
            <mxPoint x="350" y="1850" as="sourcePoint" />
            <mxPoint x="510" y="1850" as="targetPoint" />
          </mxGeometry>
        </mxCell>
        <mxCell id="r5klLoDjx4hmF9z2d2eS-40" value="" style="endArrow=block;endSize=16;endFill=0;html=1;rounded=0;" parent="1" source="r5klLoDjx4hmF9z2d2eS-37" target="r5klLoDjx4hmF9z2d2eS-19" edge="1">
          <mxGeometry width="160" relative="1" as="geometry">
            <mxPoint x="350" y="1850" as="sourcePoint" />
            <mxPoint x="510" y="1850" as="targetPoint" />
          </mxGeometry>
        </mxCell>
        <mxCell id="r5klLoDjx4hmF9z2d2eS-41" value="Drawable" style="swimlane;fontStyle=3;align=center;verticalAlign=top;childLayout=stackLayout;horizontal=1;startSize=26;horizontalStack=0;resizeParent=1;resizeParentMax=0;resizeLast=0;collapsible=1;marginBottom=0;whiteSpace=wrap;html=1;" parent="1" vertex="1">
          <mxGeometry x="280" y="2040" width="120" height="52" as="geometry" />
        </mxCell>
        <mxCell id="r5klLoDjx4hmF9z2d2eS-42" value="&lt;i&gt;+ Draw()&lt;/i&gt;" style="text;strokeColor=none;fillColor=none;align=left;verticalAlign=top;spacingLeft=4;spacingRight=4;overflow=hidden;rotatable=0;points=[[0,0.5],[1,0.5]];portConstraint=eastwest;whiteSpace=wrap;html=1;" parent="r5klLoDjx4hmF9z2d2eS-41" vertex="1">
          <mxGeometry y="26" width="120" height="26" as="geometry" />
        </mxCell>
        <mxCell id="r5klLoDjx4hmF9z2d2eS-45" value="Animal" style="swimlane;fontStyle=3;align=center;verticalAlign=top;childLayout=stackLayout;horizontal=1;startSize=26;horizontalStack=0;resizeParent=1;resizeParentMax=0;resizeLast=0;collapsible=1;marginBottom=0;whiteSpace=wrap;html=1;" parent="1" vertex="1">
          <mxGeometry x="240" y="2160" width="120" height="78" as="geometry" />
        </mxCell>
        <mxCell id="r5klLoDjx4hmF9z2d2eS-46" value="+ Eat()" style="text;strokeColor=none;fillColor=none;align=left;verticalAlign=top;spacingLeft=4;spacingRight=4;overflow=hidden;rotatable=0;points=[[0,0.5],[1,0.5]];portConstraint=eastwest;whiteSpace=wrap;html=1;" parent="r5klLoDjx4hmF9z2d2eS-45" vertex="1">
          <mxGeometry y="26" width="120" height="26" as="geometry" />
        </mxCell>
        <mxCell id="r5klLoDjx4hmF9z2d2eS-47" value="+ Move()" style="text;strokeColor=none;fillColor=none;align=left;verticalAlign=top;spacingLeft=4;spacingRight=4;overflow=hidden;rotatable=0;points=[[0,0.5],[1,0.5]];portConstraint=eastwest;whiteSpace=wrap;html=1;fontStyle=2" parent="r5klLoDjx4hmF9z2d2eS-45" vertex="1">
          <mxGeometry y="52" width="120" height="26" as="geometry" />
        </mxCell>
        <mxCell id="r5klLoDjx4hmF9z2d2eS-49" value="" style="endArrow=block;dashed=1;endFill=0;endSize=12;html=1;rounded=0;" parent="1" source="r5klLoDjx4hmF9z2d2eS-45" target="r5klLoDjx4hmF9z2d2eS-41" edge="1">
          <mxGeometry width="160" relative="1" as="geometry">
            <mxPoint x="360" y="2140" as="sourcePoint" />
            <mxPoint x="520" y="2140" as="targetPoint" />
          </mxGeometry>
        </mxCell>
        <mxCell id="r5klLoDjx4hmF9z2d2eS-50" value="&lt;span style=&quot;font-style: normal;&quot;&gt;Robot&lt;/span&gt;" style="swimlane;fontStyle=3;align=center;verticalAlign=top;childLayout=stackLayout;horizontal=1;startSize=26;horizontalStack=0;resizeParent=1;resizeParentMax=0;resizeLast=0;collapsible=1;marginBottom=0;whiteSpace=wrap;html=1;" parent="1" vertex="1">
          <mxGeometry x="400" y="2160" width="120" height="52" as="geometry" />
        </mxCell>
        <mxCell id="r5klLoDjx4hmF9z2d2eS-52" value="+ Draw()" style="text;strokeColor=none;fillColor=none;align=left;verticalAlign=top;spacingLeft=4;spacingRight=4;overflow=hidden;rotatable=0;points=[[0,0.5],[1,0.5]];portConstraint=eastwest;whiteSpace=wrap;html=1;fontStyle=0" parent="r5klLoDjx4hmF9z2d2eS-50" vertex="1">
          <mxGeometry y="26" width="120" height="26" as="geometry" />
        </mxCell>
        <mxCell id="r5klLoDjx4hmF9z2d2eS-53" value="" style="endArrow=block;dashed=1;endFill=0;endSize=12;html=1;rounded=0;" parent="1" source="r5klLoDjx4hmF9z2d2eS-50" target="r5klLoDjx4hmF9z2d2eS-41" edge="1">
          <mxGeometry width="160" relative="1" as="geometry">
            <mxPoint x="360" y="2140" as="sourcePoint" />
            <mxPoint x="520" y="2140" as="targetPoint" />
          </mxGeometry>
        </mxCell>
        <mxCell id="r5klLoDjx4hmF9z2d2eS-54" value="&lt;span style=&quot;font-style: normal;&quot;&gt;Cat&lt;/span&gt;" style="swimlane;fontStyle=3;align=center;verticalAlign=top;childLayout=stackLayout;horizontal=1;startSize=26;horizontalStack=0;resizeParent=1;resizeParentMax=0;resizeLast=0;collapsible=1;marginBottom=0;whiteSpace=wrap;html=1;" parent="1" vertex="1">
          <mxGeometry x="319.94" y="2280" width="120" height="78" as="geometry" />
        </mxCell>
        <mxCell id="r5klLoDjx4hmF9z2d2eS-55" value="+ Draw()" style="text;strokeColor=none;fillColor=none;align=left;verticalAlign=top;spacingLeft=4;spacingRight=4;overflow=hidden;rotatable=0;points=[[0,0.5],[1,0.5]];portConstraint=eastwest;whiteSpace=wrap;html=1;fontStyle=0" parent="r5klLoDjx4hmF9z2d2eS-54" vertex="1">
          <mxGeometry y="26" width="120" height="26" as="geometry" />
        </mxCell>
        <mxCell id="r5klLoDjx4hmF9z2d2eS-56" value="+ Move()" style="text;strokeColor=none;fillColor=none;align=left;verticalAlign=top;spacingLeft=4;spacingRight=4;overflow=hidden;rotatable=0;points=[[0,0.5],[1,0.5]];portConstraint=eastwest;whiteSpace=wrap;html=1;fontStyle=0" parent="r5klLoDjx4hmF9z2d2eS-54" vertex="1">
          <mxGeometry y="52" width="120" height="26" as="geometry" />
        </mxCell>
        <mxCell id="r5klLoDjx4hmF9z2d2eS-57" value="&lt;span style=&quot;font-style: normal;&quot;&gt;Fish&lt;/span&gt;" style="swimlane;fontStyle=3;align=center;verticalAlign=top;childLayout=stackLayout;horizontal=1;startSize=26;horizontalStack=0;resizeParent=1;resizeParentMax=0;resizeLast=0;collapsible=1;marginBottom=0;whiteSpace=wrap;html=1;" parent="1" vertex="1">
          <mxGeometry x="160" y="2280" width="120" height="78" as="geometry" />
        </mxCell>
        <mxCell id="r5klLoDjx4hmF9z2d2eS-58" value="+ Draw()" style="text;strokeColor=none;fillColor=none;align=left;verticalAlign=top;spacingLeft=4;spacingRight=4;overflow=hidden;rotatable=0;points=[[0,0.5],[1,0.5]];portConstraint=eastwest;whiteSpace=wrap;html=1;fontStyle=0" parent="r5klLoDjx4hmF9z2d2eS-57" vertex="1">
          <mxGeometry y="26" width="120" height="26" as="geometry" />
        </mxCell>
        <mxCell id="r5klLoDjx4hmF9z2d2eS-59" value="+ Move()" style="text;strokeColor=none;fillColor=none;align=left;verticalAlign=top;spacingLeft=4;spacingRight=4;overflow=hidden;rotatable=0;points=[[0,0.5],[1,0.5]];portConstraint=eastwest;whiteSpace=wrap;html=1;fontStyle=0" parent="r5klLoDjx4hmF9z2d2eS-57" vertex="1">
          <mxGeometry y="52" width="120" height="26" as="geometry" />
        </mxCell>
        <mxCell id="r5klLoDjx4hmF9z2d2eS-60" value="" style="endArrow=block;endSize=16;endFill=0;html=1;rounded=0;" parent="1" source="r5klLoDjx4hmF9z2d2eS-57" target="r5klLoDjx4hmF9z2d2eS-45" edge="1">
          <mxGeometry width="160" relative="1" as="geometry">
            <mxPoint x="210" y="2290" as="sourcePoint" />
            <mxPoint x="370" y="2290" as="targetPoint" />
          </mxGeometry>
        </mxCell>
        <mxCell id="r5klLoDjx4hmF9z2d2eS-61" value="" style="endArrow=block;endSize=16;endFill=0;html=1;rounded=0;" parent="1" source="r5klLoDjx4hmF9z2d2eS-54" target="r5klLoDjx4hmF9z2d2eS-45" edge="1">
          <mxGeometry width="160" relative="1" as="geometry">
            <mxPoint x="210" y="2290" as="sourcePoint" />
            <mxPoint x="370" y="2290" as="targetPoint" />
          </mxGeometry>
        </mxCell>
        <mxCell id="JWJLLMxNEEDVaTBIcfby-1" value="&lt;i&gt;IShape&lt;/i&gt;" style="swimlane;fontStyle=1;align=center;verticalAlign=top;childLayout=stackLayout;horizontal=1;startSize=26;horizontalStack=0;resizeParent=1;resizeParentMax=0;resizeLast=0;collapsible=1;marginBottom=0;whiteSpace=wrap;html=1;" parent="1" vertex="1">
          <mxGeometry x="880" y="1960" width="160" height="52" as="geometry" />
        </mxCell>
        <mxCell id="JWJLLMxNEEDVaTBIcfby-5" value="&lt;i&gt;Shape&lt;/i&gt;" style="swimlane;fontStyle=1;align=center;verticalAlign=top;childLayout=stackLayout;horizontal=1;startSize=26;horizontalStack=0;resizeParent=1;resizeParentMax=0;resizeLast=0;collapsible=1;marginBottom=0;whiteSpace=wrap;html=1;" parent="1" vertex="1">
          <mxGeometry x="880" y="2080" width="160" height="52" as="geometry" />
        </mxCell>
        <mxCell id="JWJLLMxNEEDVaTBIcfby-6" value="" style="endArrow=block;dashed=1;endFill=0;endSize=12;html=1;rounded=0;" parent="1" source="JWJLLMxNEEDVaTBIcfby-5" target="JWJLLMxNEEDVaTBIcfby-1" edge="1">
          <mxGeometry width="160" relative="1" as="geometry">
            <mxPoint x="940" y="2050" as="sourcePoint" />
            <mxPoint x="1100" y="2050" as="targetPoint" />
          </mxGeometry>
        </mxCell>
        <mxCell id="JWJLLMxNEEDVaTBIcfby-7" value="Circle" style="swimlane;fontStyle=1;align=center;verticalAlign=top;childLayout=stackLayout;horizontal=1;startSize=26;horizontalStack=0;resizeParent=1;resizeParentMax=0;resizeLast=0;collapsible=1;marginBottom=0;whiteSpace=wrap;html=1;" parent="1" vertex="1">
          <mxGeometry x="800" y="2200" width="160" height="52" as="geometry" />
        </mxCell>
        <mxCell id="JWJLLMxNEEDVaTBIcfby-8" value="Square" style="swimlane;fontStyle=1;align=center;verticalAlign=top;childLayout=stackLayout;horizontal=1;startSize=26;horizontalStack=0;resizeParent=1;resizeParentMax=0;resizeLast=0;collapsible=1;marginBottom=0;whiteSpace=wrap;html=1;" parent="1" vertex="1">
          <mxGeometry x="1000" y="2200" width="160" height="52" as="geometry" />
        </mxCell>
        <mxCell id="JWJLLMxNEEDVaTBIcfby-9" value="Extends" style="endArrow=block;endSize=16;endFill=0;html=1;rounded=0;" parent="1" source="JWJLLMxNEEDVaTBIcfby-7" target="JWJLLMxNEEDVaTBIcfby-5" edge="1">
          <mxGeometry width="160" relative="1" as="geometry">
            <mxPoint x="870" y="2160" as="sourcePoint" />
            <mxPoint x="1030" y="2160" as="targetPoint" />
          </mxGeometry>
        </mxCell>
        <mxCell id="JWJLLMxNEEDVaTBIcfby-10" value="Extends" style="endArrow=block;endSize=16;endFill=0;html=1;rounded=0;" parent="1" source="JWJLLMxNEEDVaTBIcfby-8" target="JWJLLMxNEEDVaTBIcfby-5" edge="1">
          <mxGeometry width="160" relative="1" as="geometry">
            <mxPoint x="870" y="2160" as="sourcePoint" />
            <mxPoint x="1030" y="2160" as="targetPoint" />
          </mxGeometry>
        </mxCell>
        <mxCell id="MwtV4giR5gPlG077C6B7-1" value="UserService" style="swimlane;fontStyle=1;align=center;verticalAlign=top;childLayout=stackLayout;horizontal=1;startSize=26;horizontalStack=0;resizeParent=1;resizeParentMax=0;resizeLast=0;collapsible=1;marginBottom=0;whiteSpace=wrap;html=1;" parent="1" vertex="1">
          <mxGeometry x="290" y="2590" width="160" height="52" as="geometry" />
        </mxCell>
        <mxCell id="MwtV4giR5gPlG077C6B7-32" value="+RegisterUser(name)" style="text;strokeColor=none;fillColor=none;align=left;verticalAlign=top;spacingLeft=4;spacingRight=4;overflow=hidden;rotatable=0;points=[[0,0.5],[1,0.5]];portConstraint=eastwest;whiteSpace=wrap;html=1;" parent="MwtV4giR5gPlG077C6B7-1" vertex="1">
          <mxGeometry y="26" width="160" height="26" as="geometry" />
        </mxCell>
        <mxCell id="MwtV4giR5gPlG077C6B7-5" value="IUserRepository" style="swimlane;fontStyle=3;align=center;verticalAlign=top;childLayout=stackLayout;horizontal=1;startSize=26;horizontalStack=0;resizeParent=1;resizeParentMax=0;resizeLast=0;collapsible=1;marginBottom=0;whiteSpace=wrap;html=1;" parent="1" vertex="1">
          <mxGeometry x="560" y="2610" width="210" height="78" as="geometry" />
        </mxCell>
        <mxCell id="MwtV4giR5gPlG077C6B7-6" value="+ AddUser(user:User)" style="text;strokeColor=none;fillColor=none;align=left;verticalAlign=top;spacingLeft=4;spacingRight=4;overflow=hidden;rotatable=0;points=[[0,0.5],[1,0.5]];portConstraint=eastwest;whiteSpace=wrap;html=1;fontStyle=2" parent="MwtV4giR5gPlG077C6B7-5" vertex="1">
          <mxGeometry y="26" width="210" height="26" as="geometry" />
        </mxCell>
        <mxCell id="MwtV4giR5gPlG077C6B7-9" value="+ GetUserById(userId:UserId)" style="text;strokeColor=none;fillColor=none;align=left;verticalAlign=top;spacingLeft=4;spacingRight=4;overflow=hidden;rotatable=0;points=[[0,0.5],[1,0.5]];portConstraint=eastwest;whiteSpace=wrap;html=1;fontStyle=2" parent="MwtV4giR5gPlG077C6B7-5" vertex="1">
          <mxGeometry y="52" width="210" height="26" as="geometry" />
        </mxCell>
        <mxCell id="MwtV4giR5gPlG077C6B7-10" value="User" style="swimlane;fontStyle=1;align=center;verticalAlign=top;childLayout=stackLayout;horizontal=1;startSize=26;horizontalStack=0;resizeParent=1;resizeParentMax=0;resizeLast=0;collapsible=1;marginBottom=0;whiteSpace=wrap;html=1;" parent="1" vertex="1">
          <mxGeometry x="585" y="2460" width="160" height="78" as="geometry" />
        </mxCell>
        <mxCell id="MwtV4giR5gPlG077C6B7-11" value="+id: UserId" style="text;strokeColor=none;fillColor=none;align=left;verticalAlign=top;spacingLeft=4;spacingRight=4;overflow=hidden;rotatable=0;points=[[0,0.5],[1,0.5]];portConstraint=eastwest;whiteSpace=wrap;html=1;" parent="MwtV4giR5gPlG077C6B7-10" vertex="1">
          <mxGeometry y="26" width="160" height="26" as="geometry" />
        </mxCell>
        <mxCell id="MwtV4giR5gPlG077C6B7-13" value="+name:string" style="text;strokeColor=none;fillColor=none;align=left;verticalAlign=top;spacingLeft=4;spacingRight=4;overflow=hidden;rotatable=0;points=[[0,0.5],[1,0.5]];portConstraint=eastwest;whiteSpace=wrap;html=1;" parent="MwtV4giR5gPlG077C6B7-10" vertex="1">
          <mxGeometry y="52" width="160" height="26" as="geometry" />
        </mxCell>
        <mxCell id="MwtV4giR5gPlG077C6B7-14" value="Use" style="endArrow=open;endSize=12;dashed=1;html=1;rounded=0;" parent="1" source="MwtV4giR5gPlG077C6B7-5" target="MwtV4giR5gPlG077C6B7-10" edge="1">
          <mxGeometry width="160" relative="1" as="geometry">
            <mxPoint x="510" y="2560" as="sourcePoint" />
            <mxPoint x="670" y="2560" as="targetPoint" />
          </mxGeometry>
        </mxCell>
        <mxCell id="MwtV4giR5gPlG077C6B7-15" value="" style="endArrow=diamondThin;endFill=0;endSize=24;html=1;rounded=0;" parent="1" source="MwtV4giR5gPlG077C6B7-5" target="MwtV4giR5gPlG077C6B7-1" edge="1">
          <mxGeometry width="160" relative="1" as="geometry">
            <mxPoint x="350" y="2750" as="sourcePoint" />
            <mxPoint x="510" y="2750" as="targetPoint" />
          </mxGeometry>
        </mxCell>
        <mxCell id="MwtV4giR5gPlG077C6B7-16" value="MySQLUserRepository" style="swimlane;fontStyle=1;align=center;verticalAlign=top;childLayout=stackLayout;horizontal=1;startSize=26;horizontalStack=0;resizeParent=1;resizeParentMax=0;resizeLast=0;collapsible=1;marginBottom=0;whiteSpace=wrap;html=1;" parent="1" vertex="1">
          <mxGeometry x="470" y="2760" width="180" height="78" as="geometry" />
        </mxCell>
        <mxCell id="MwtV4giR5gPlG077C6B7-21" value="+ AddUser(user:User)" style="text;strokeColor=none;fillColor=none;align=left;verticalAlign=top;spacingLeft=4;spacingRight=4;overflow=hidden;rotatable=0;points=[[0,0.5],[1,0.5]];portConstraint=eastwest;whiteSpace=wrap;html=1;fontStyle=0" parent="MwtV4giR5gPlG077C6B7-16" vertex="1">
          <mxGeometry y="26" width="180" height="26" as="geometry" />
        </mxCell>
        <mxCell id="MwtV4giR5gPlG077C6B7-22" value="+ GetUserById(userId:UserId)" style="text;strokeColor=none;fillColor=none;align=left;verticalAlign=top;spacingLeft=4;spacingRight=4;overflow=hidden;rotatable=0;points=[[0,0.5],[1,0.5]];portConstraint=eastwest;whiteSpace=wrap;html=1;fontStyle=0" parent="MwtV4giR5gPlG077C6B7-16" vertex="1">
          <mxGeometry y="52" width="180" height="26" as="geometry" />
        </mxCell>
        <mxCell id="MwtV4giR5gPlG077C6B7-20" value="" style="endArrow=block;dashed=1;endFill=0;endSize=12;html=1;rounded=0;" parent="1" source="MwtV4giR5gPlG077C6B7-16" target="MwtV4giR5gPlG077C6B7-5" edge="1">
          <mxGeometry width="160" relative="1" as="geometry">
            <mxPoint x="490" y="2730" as="sourcePoint" />
            <mxPoint x="650" y="2730" as="targetPoint" />
          </mxGeometry>
        </mxCell>
        <mxCell id="MwtV4giR5gPlG077C6B7-23" value="TestMySQLRepository" style="swimlane;fontStyle=1;align=center;verticalAlign=top;childLayout=stackLayout;horizontal=1;startSize=26;horizontalStack=0;resizeParent=1;resizeParentMax=0;resizeLast=0;collapsible=1;marginBottom=0;whiteSpace=wrap;html=1;" parent="1" vertex="1">
          <mxGeometry x="675" y="2760" width="180" height="78" as="geometry" />
        </mxCell>
        <mxCell id="MwtV4giR5gPlG077C6B7-24" value="+ AddUser(user:User)" style="text;strokeColor=none;fillColor=none;align=left;verticalAlign=top;spacingLeft=4;spacingRight=4;overflow=hidden;rotatable=0;points=[[0,0.5],[1,0.5]];portConstraint=eastwest;whiteSpace=wrap;html=1;fontStyle=0" parent="MwtV4giR5gPlG077C6B7-23" vertex="1">
          <mxGeometry y="26" width="180" height="26" as="geometry" />
        </mxCell>
        <mxCell id="MwtV4giR5gPlG077C6B7-25" value="+ GetUserById(userId:UserId)" style="text;strokeColor=none;fillColor=none;align=left;verticalAlign=top;spacingLeft=4;spacingRight=4;overflow=hidden;rotatable=0;points=[[0,0.5],[1,0.5]];portConstraint=eastwest;whiteSpace=wrap;html=1;fontStyle=0" parent="MwtV4giR5gPlG077C6B7-23" vertex="1">
          <mxGeometry y="52" width="180" height="26" as="geometry" />
        </mxCell>
        <mxCell id="MwtV4giR5gPlG077C6B7-26" value="" style="endArrow=block;dashed=1;endFill=0;endSize=12;html=1;rounded=0;" parent="1" source="MwtV4giR5gPlG077C6B7-23" target="MwtV4giR5gPlG077C6B7-5" edge="1">
          <mxGeometry width="160" relative="1" as="geometry">
            <mxPoint x="490" y="2730" as="sourcePoint" />
            <mxPoint x="650" y="2730" as="targetPoint" />
          </mxGeometry>
        </mxCell>
        <mxCell id="MwtV4giR5gPlG077C6B7-27" value="Use" style="endArrow=open;endSize=12;dashed=1;html=1;rounded=0;" parent="1" source="MwtV4giR5gPlG077C6B7-1" target="MwtV4giR5gPlG077C6B7-10" edge="1">
          <mxGeometry width="160" relative="1" as="geometry">
            <mxPoint x="510" y="2560" as="sourcePoint" />
            <mxPoint x="670" y="2560" as="targetPoint" />
          </mxGeometry>
        </mxCell>
        <mxCell id="MwtV4giR5gPlG077C6B7-33" value="Interface1" style="swimlane;fontStyle=3;align=center;verticalAlign=top;childLayout=stackLayout;horizontal=1;startSize=26;horizontalStack=0;resizeParent=1;resizeParentMax=0;resizeLast=0;collapsible=1;marginBottom=0;whiteSpace=wrap;html=1;fillColor=#d5e8d4;strokeColor=#82b366;" parent="1" vertex="1">
          <mxGeometry x="40" y="2923" width="270" height="52" as="geometry" />
        </mxCell>
        <mxCell id="MwtV4giR5gPlG077C6B7-34" value="SomeMethod(i:SomeInterface): SomeClass" style="text;strokeColor=none;fillColor=none;align=left;verticalAlign=top;spacingLeft=4;spacingRight=4;overflow=hidden;rotatable=0;points=[[0,0.5],[1,0.5]];portConstraint=eastwest;whiteSpace=wrap;html=1;fontStyle=2" parent="MwtV4giR5gPlG077C6B7-33" vertex="1">
          <mxGeometry y="26" width="270" height="26" as="geometry" />
        </mxCell>
        <mxCell id="MwtV4giR5gPlG077C6B7-36" value="Interface2" style="swimlane;fontStyle=3;align=center;verticalAlign=top;childLayout=stackLayout;horizontal=1;startSize=26;horizontalStack=0;resizeParent=1;resizeParentMax=0;resizeLast=0;collapsible=1;marginBottom=0;whiteSpace=wrap;html=1;" parent="1" vertex="1">
          <mxGeometry x="400" y="2923" width="120" height="52" as="geometry" />
        </mxCell>
        <mxCell id="MwtV4giR5gPlG077C6B7-37" value="SomeOtherMethod()" style="text;strokeColor=none;fillColor=none;align=left;verticalAlign=top;spacingLeft=4;spacingRight=4;overflow=hidden;rotatable=0;points=[[0,0.5],[1,0.5]];portConstraint=eastwest;whiteSpace=wrap;html=1;fontStyle=2" parent="MwtV4giR5gPlG077C6B7-36" vertex="1">
          <mxGeometry y="26" width="120" height="26" as="geometry" />
        </mxCell>
        <mxCell id="MwtV4giR5gPlG077C6B7-38" value="SomeClass" style="swimlane;fontStyle=1;align=center;verticalAlign=top;childLayout=stackLayout;horizontal=1;startSize=26;horizontalStack=0;resizeParent=1;resizeParentMax=0;resizeLast=0;collapsible=1;marginBottom=0;whiteSpace=wrap;html=1;" parent="1" vertex="1">
          <mxGeometry x="350" y="3050" width="120" height="52" as="geometry" />
        </mxCell>
        <mxCell id="MwtV4giR5gPlG077C6B7-39" value="SomeOtherMethod()" style="text;strokeColor=none;fillColor=none;align=left;verticalAlign=top;spacingLeft=4;spacingRight=4;overflow=hidden;rotatable=0;points=[[0,0.5],[1,0.5]];portConstraint=eastwest;whiteSpace=wrap;html=1;fontStyle=0" parent="MwtV4giR5gPlG077C6B7-38" vertex="1">
          <mxGeometry y="26" width="120" height="26" as="geometry" />
        </mxCell>
        <mxCell id="MwtV4giR5gPlG077C6B7-41" value="Use" style="endArrow=open;endSize=12;dashed=1;html=1;rounded=0;" parent="1" source="MwtV4giR5gPlG077C6B7-33" target="MwtV4giR5gPlG077C6B7-36" edge="1">
          <mxGeometry width="160" relative="1" as="geometry">
            <mxPoint x="100" y="3060" as="sourcePoint" />
            <mxPoint x="260" y="3060" as="targetPoint" />
          </mxGeometry>
        </mxCell>
        <mxCell id="MwtV4giR5gPlG077C6B7-42" value="Use" style="endArrow=open;endSize=12;dashed=1;html=1;rounded=0;" parent="1" source="MwtV4giR5gPlG077C6B7-33" target="MwtV4giR5gPlG077C6B7-38" edge="1">
          <mxGeometry width="160" relative="1" as="geometry">
            <mxPoint x="100" y="3060" as="sourcePoint" />
            <mxPoint x="260" y="3060" as="targetPoint" />
          </mxGeometry>
        </mxCell>
        <mxCell id="MwtV4giR5gPlG077C6B7-43" value="Interface3" style="swimlane;fontStyle=3;align=center;verticalAlign=top;childLayout=stackLayout;horizontal=1;startSize=26;horizontalStack=0;resizeParent=1;resizeParentMax=0;resizeLast=0;collapsible=1;marginBottom=0;whiteSpace=wrap;html=1;fillColor=#d5e8d4;strokeColor=#82b366;" parent="1" vertex="1">
          <mxGeometry x="80" y="3230" width="160" height="52" as="geometry" />
        </mxCell>
        <mxCell id="MwtV4giR5gPlG077C6B7-44" value="DoSomethingElse()" style="text;strokeColor=none;fillColor=none;align=left;verticalAlign=top;spacingLeft=4;spacingRight=4;overflow=hidden;rotatable=0;points=[[0,0.5],[1,0.5]];portConstraint=eastwest;whiteSpace=wrap;html=1;fontStyle=2" parent="MwtV4giR5gPlG077C6B7-43" vertex="1">
          <mxGeometry y="26" width="160" height="26" as="geometry" />
        </mxCell>
        <mxCell id="MwtV4giR5gPlG077C6B7-45" value="Interface4" style="swimlane;fontStyle=3;align=center;verticalAlign=top;childLayout=stackLayout;horizontal=1;startSize=26;horizontalStack=0;resizeParent=1;resizeParentMax=0;resizeLast=0;collapsible=1;marginBottom=0;whiteSpace=wrap;html=1;" parent="1" vertex="1">
          <mxGeometry x="100" y="3110" width="120" height="52" as="geometry" />
        </mxCell>
        <mxCell id="MwtV4giR5gPlG077C6B7-46" value="DoSomething()" style="text;strokeColor=none;fillColor=none;align=left;verticalAlign=top;spacingLeft=4;spacingRight=4;overflow=hidden;rotatable=0;points=[[0,0.5],[1,0.5]];portConstraint=eastwest;whiteSpace=wrap;html=1;fontStyle=2" parent="MwtV4giR5gPlG077C6B7-45" vertex="1">
          <mxGeometry y="26" width="120" height="26" as="geometry" />
        </mxCell>
        <mxCell id="MwtV4giR5gPlG077C6B7-51" value="Extends" style="endArrow=block;endSize=16;endFill=0;html=1;rounded=0;" parent="1" source="MwtV4giR5gPlG077C6B7-43" target="MwtV4giR5gPlG077C6B7-45" edge="1">
          <mxGeometry width="160" relative="1" as="geometry">
            <mxPoint x="350" y="3300" as="sourcePoint" />
            <mxPoint x="510" y="3300" as="targetPoint" />
          </mxGeometry>
        </mxCell>
        <mxCell id="MwtV4giR5gPlG077C6B7-52" value="Interface3" style="swimlane;fontStyle=3;align=center;verticalAlign=top;childLayout=stackLayout;horizontal=1;startSize=26;horizontalStack=0;resizeParent=1;resizeParentMax=0;resizeLast=0;collapsible=1;marginBottom=0;whiteSpace=wrap;html=1;fillColor=#d5e8d4;strokeColor=#82b366;" parent="1" vertex="1">
          <mxGeometry x="360" y="3200" width="160" height="52" as="geometry" />
        </mxCell>
        <mxCell id="MwtV4giR5gPlG077C6B7-53" value="DoSomethingElse()" style="text;strokeColor=none;fillColor=none;align=left;verticalAlign=top;spacingLeft=4;spacingRight=4;overflow=hidden;rotatable=0;points=[[0,0.5],[1,0.5]];portConstraint=eastwest;whiteSpace=wrap;html=1;fontStyle=2" parent="MwtV4giR5gPlG077C6B7-52" vertex="1">
          <mxGeometry y="26" width="160" height="26" as="geometry" />
        </mxCell>
        <mxCell id="MwtV4giR5gPlG077C6B7-57" value="SomeClass" style="swimlane;fontStyle=1;align=center;verticalAlign=top;childLayout=stackLayout;horizontal=1;startSize=26;horizontalStack=0;resizeParent=1;resizeParentMax=0;resizeLast=0;collapsible=1;marginBottom=0;whiteSpace=wrap;html=1;" parent="1" vertex="1">
          <mxGeometry x="600" y="3200" width="120" height="52" as="geometry" />
        </mxCell>
        <mxCell id="MwtV4giR5gPlG077C6B7-59" value="" style="endArrow=diamondThin;endFill=0;endSize=24;html=1;rounded=0;" parent="1" source="MwtV4giR5gPlG077C6B7-57" target="MwtV4giR5gPlG077C6B7-52" edge="1">
          <mxGeometry width="160" relative="1" as="geometry">
            <mxPoint x="390" y="3350" as="sourcePoint" />
            <mxPoint x="550" y="3350" as="targetPoint" />
          </mxGeometry>
        </mxCell>
        <mxCell id="MwtV4giR5gPlG077C6B7-61" value="SomeOtherClass" style="swimlane;fontStyle=1;align=center;verticalAlign=top;childLayout=stackLayout;horizontal=1;startSize=26;horizontalStack=0;resizeParent=1;resizeParentMax=0;resizeLast=0;collapsible=1;marginBottom=0;whiteSpace=wrap;html=1;" parent="1" vertex="1">
          <mxGeometry x="600" y="3282" width="120" height="52" as="geometry" />
        </mxCell>
        <mxCell id="MwtV4giR5gPlG077C6B7-63" value="" style="endArrow=diamondThin;endFill=1;endSize=24;html=1;rounded=0;" parent="1" source="MwtV4giR5gPlG077C6B7-61" target="MwtV4giR5gPlG077C6B7-52" edge="1">
          <mxGeometry width="160" relative="1" as="geometry">
            <mxPoint x="330" y="3380" as="sourcePoint" />
            <mxPoint x="490" y="3380" as="targetPoint" />
          </mxGeometry>
        </mxCell>
        <mxCell id="MwtV4giR5gPlG077C6B7-64" value="" style="shape=cross;whiteSpace=wrap;html=1;rotation=45;fillColor=#FF0000;" parent="1" vertex="1">
          <mxGeometry x="540" y="3252" width="40" height="40" as="geometry" />
        </mxCell>
        <mxCell id="MwtV4giR5gPlG077C6B7-66" value="" style="shape=cross;whiteSpace=wrap;html=1;rotation=45;fillColor=#FF0000;" parent="1" vertex="1">
          <mxGeometry x="545" y="3206" width="40" height="40" as="geometry" />
        </mxCell>
        <mxCell id="MwtV4giR5gPlG077C6B7-67" value="A" style="swimlane;fontStyle=1;align=center;verticalAlign=top;childLayout=stackLayout;horizontal=1;startSize=26;horizontalStack=0;resizeParent=1;resizeParentMax=0;resizeLast=0;collapsible=1;marginBottom=0;whiteSpace=wrap;html=1;" parent="1" vertex="1">
          <mxGeometry x="30" y="3600" width="80.06" height="52" as="geometry" />
        </mxCell>
        <mxCell id="MwtV4giR5gPlG077C6B7-71" value="B" style="swimlane;fontStyle=1;align=center;verticalAlign=top;childLayout=stackLayout;horizontal=1;startSize=26;horizontalStack=0;resizeParent=1;resizeParentMax=0;resizeLast=0;collapsible=1;marginBottom=0;whiteSpace=wrap;html=1;" parent="1" vertex="1">
          <mxGeometry x="270" y="3480" width="80" height="52" as="geometry" />
        </mxCell>
        <mxCell id="MwtV4giR5gPlG077C6B7-72" value="C" style="swimlane;fontStyle=3;align=center;verticalAlign=top;childLayout=stackLayout;horizontal=1;startSize=26;horizontalStack=0;resizeParent=1;resizeParentMax=0;resizeLast=0;collapsible=1;marginBottom=0;whiteSpace=wrap;html=1;" parent="1" vertex="1">
          <mxGeometry x="170" y="3610" width="80" height="52" as="geometry" />
        </mxCell>
        <mxCell id="MwtV4giR5gPlG077C6B7-73" value="D" style="swimlane;fontStyle=1;align=center;verticalAlign=top;childLayout=stackLayout;horizontal=1;startSize=26;horizontalStack=0;resizeParent=1;resizeParentMax=0;resizeLast=0;collapsible=1;marginBottom=0;whiteSpace=wrap;html=1;" parent="1" vertex="1">
          <mxGeometry x="390" y="3610" width="80" height="52" as="geometry" />
        </mxCell>
        <mxCell id="MwtV4giR5gPlG077C6B7-74" value="E" style="swimlane;fontStyle=1;align=center;verticalAlign=top;childLayout=stackLayout;horizontal=1;startSize=26;horizontalStack=0;resizeParent=1;resizeParentMax=0;resizeLast=0;collapsible=1;marginBottom=0;whiteSpace=wrap;html=1;" parent="1" vertex="1">
          <mxGeometry x="200" y="3720" width="80" height="52" as="geometry" />
        </mxCell>
        <mxCell id="MwtV4giR5gPlG077C6B7-75" value="" style="endArrow=diamondThin;endFill=1;endSize=24;html=1;rounded=0;startArrow=open;startFill=0;" parent="1" source="MwtV4giR5gPlG077C6B7-72" target="MwtV4giR5gPlG077C6B7-67" edge="1">
          <mxGeometry width="160" relative="1" as="geometry">
            <mxPoint x="30" y="3740" as="sourcePoint" />
            <mxPoint x="190" y="3740" as="targetPoint" />
          </mxGeometry>
        </mxCell>
        <mxCell id="MwtV4giR5gPlG077C6B7-76" value="" style="endArrow=block;dashed=1;endFill=0;endSize=12;html=1;rounded=0;" parent="1" source="MwtV4giR5gPlG077C6B7-74" target="MwtV4giR5gPlG077C6B7-72" edge="1">
          <mxGeometry width="160" relative="1" as="geometry">
            <mxPoint x="290" y="3730" as="sourcePoint" />
            <mxPoint x="450" y="3730" as="targetPoint" />
          </mxGeometry>
        </mxCell>
        <mxCell id="MwtV4giR5gPlG077C6B7-77" value="" style="endArrow=diamondThin;endFill=0;endSize=24;html=1;rounded=0;startArrow=open;startFill=0;" parent="1" source="MwtV4giR5gPlG077C6B7-73" target="MwtV4giR5gPlG077C6B7-74" edge="1">
          <mxGeometry width="160" relative="1" as="geometry">
            <mxPoint x="300" y="3850" as="sourcePoint" />
            <mxPoint x="460" y="3850" as="targetPoint" />
          </mxGeometry>
        </mxCell>
        <mxCell id="MwtV4giR5gPlG077C6B7-78" value="Use" style="endArrow=open;endSize=12;dashed=1;html=1;rounded=0;" parent="1" source="MwtV4giR5gPlG077C6B7-72" target="MwtV4giR5gPlG077C6B7-71" edge="1">
          <mxGeometry width="160" relative="1" as="geometry">
            <mxPoint x="340" y="3560" as="sourcePoint" />
            <mxPoint x="500" y="3560" as="targetPoint" />
          </mxGeometry>
        </mxCell>
        <mxCell id="MwtV4giR5gPlG077C6B7-79" value="Use" style="endArrow=open;endSize=12;dashed=1;html=1;rounded=0;" parent="1" source="MwtV4giR5gPlG077C6B7-67" target="MwtV4giR5gPlG077C6B7-71" edge="1">
          <mxGeometry width="160" relative="1" as="geometry">
            <mxPoint x="340" y="3560" as="sourcePoint" />
            <mxPoint x="500" y="3560" as="targetPoint" />
          </mxGeometry>
        </mxCell>
        <mxCell id="MwtV4giR5gPlG077C6B7-80" value="Extends" style="endArrow=block;endSize=16;endFill=0;html=1;rounded=0;" parent="1" source="MwtV4giR5gPlG077C6B7-81" target="MwtV4giR5gPlG077C6B7-73" edge="1">
          <mxGeometry width="160" relative="1" as="geometry">
            <mxPoint x="410" y="3770" as="sourcePoint" />
            <mxPoint x="510" y="3580" as="targetPoint" />
          </mxGeometry>
        </mxCell>
        <mxCell id="MwtV4giR5gPlG077C6B7-81" value="F" style="swimlane;fontStyle=1;align=center;verticalAlign=top;childLayout=stackLayout;horizontal=1;startSize=26;horizontalStack=0;resizeParent=1;resizeParentMax=0;resizeLast=0;collapsible=1;marginBottom=0;whiteSpace=wrap;html=1;" parent="1" vertex="1">
          <mxGeometry x="370" y="3760" width="80" height="52" as="geometry" />
        </mxCell>
        <mxCell id="MwtV4giR5gPlG077C6B7-82" value="Use" style="endArrow=open;endSize=12;dashed=1;html=1;rounded=0;" parent="1" source="MwtV4giR5gPlG077C6B7-74" target="MwtV4giR5gPlG077C6B7-71" edge="1">
          <mxGeometry width="160" relative="1" as="geometry">
            <mxPoint x="340" y="3560" as="sourcePoint" />
            <mxPoint x="500" y="3560" as="targetPoint" />
          </mxGeometry>
        </mxCell>
        <mxCell id="MwtV4giR5gPlG077C6B7-83" value="main" style="swimlane;fontStyle=1;align=center;verticalAlign=top;childLayout=stackLayout;horizontal=1;startSize=26;horizontalStack=0;resizeParent=1;resizeParentMax=0;resizeLast=0;collapsible=1;marginBottom=0;whiteSpace=wrap;html=1;" parent="1" vertex="1">
          <mxGeometry x="120" y="3840" width="80" height="52" as="geometry" />
        </mxCell>
        <mxCell id="MwtV4giR5gPlG077C6B7-84" value="Create" style="endArrow=open;endSize=12;dashed=1;html=1;rounded=0;" parent="1" source="MwtV4giR5gPlG077C6B7-83" target="MwtV4giR5gPlG077C6B7-67" edge="1">
          <mxGeometry width="160" relative="1" as="geometry">
            <mxPoint x="10" y="3780" as="sourcePoint" />
            <mxPoint x="170" y="3780" as="targetPoint" />
          </mxGeometry>
        </mxCell>
        <mxCell id="MwtV4giR5gPlG077C6B7-85" value="Create" style="endArrow=open;endSize=12;dashed=1;html=1;rounded=0;" parent="1" source="MwtV4giR5gPlG077C6B7-83" target="MwtV4giR5gPlG077C6B7-74" edge="1">
          <mxGeometry width="160" relative="1" as="geometry">
            <mxPoint x="10" y="3780" as="sourcePoint" />
            <mxPoint x="170" y="3780" as="targetPoint" />
          </mxGeometry>
        </mxCell>
        <mxCell id="MwtV4giR5gPlG077C6B7-86" value="Create" style="endArrow=open;endSize=12;dashed=1;html=1;rounded=0;" parent="1" source="MwtV4giR5gPlG077C6B7-83" target="MwtV4giR5gPlG077C6B7-81" edge="1">
          <mxGeometry width="160" relative="1" as="geometry">
            <mxPoint x="10" y="3780" as="sourcePoint" />
            <mxPoint x="170" y="3780" as="targetPoint" />
          </mxGeometry>
        </mxCell>
        <mxCell id="284YQ6cZXjjt9D2VZ_ou-1" value="&lt;span&gt;Shape&lt;/span&gt;" style="swimlane;fontStyle=1;align=center;verticalAlign=top;childLayout=stackLayout;horizontal=1;startSize=26;horizontalStack=0;resizeParent=1;resizeParentMax=0;resizeLast=0;collapsible=1;marginBottom=0;whiteSpace=wrap;html=1;" parent="1" vertex="1">
          <mxGeometry x="1440" y="2080" width="160" height="52" as="geometry" />
        </mxCell>
        <mxCell id="284YQ6cZXjjt9D2VZ_ou-2" value="Circle" style="swimlane;fontStyle=1;align=center;verticalAlign=top;childLayout=stackLayout;horizontal=1;startSize=26;horizontalStack=0;resizeParent=1;resizeParentMax=0;resizeLast=0;collapsible=1;marginBottom=0;whiteSpace=wrap;html=1;" parent="1" vertex="1">
          <mxGeometry x="1360" y="2200" width="160" height="52" as="geometry" />
        </mxCell>
        <mxCell id="284YQ6cZXjjt9D2VZ_ou-3" value="Rectangle" style="swimlane;fontStyle=1;align=center;verticalAlign=top;childLayout=stackLayout;horizontal=1;startSize=26;horizontalStack=0;resizeParent=1;resizeParentMax=0;resizeLast=0;collapsible=1;marginBottom=0;whiteSpace=wrap;html=1;" parent="1" vertex="1">
          <mxGeometry x="1560" y="2200" width="160" height="52" as="geometry" />
        </mxCell>
        <mxCell id="284YQ6cZXjjt9D2VZ_ou-4" value="Extends" style="endArrow=block;endSize=16;endFill=0;html=1;rounded=0;" parent="1" source="284YQ6cZXjjt9D2VZ_ou-2" target="284YQ6cZXjjt9D2VZ_ou-1" edge="1">
          <mxGeometry width="160" relative="1" as="geometry">
            <mxPoint x="1430" y="2160" as="sourcePoint" />
            <mxPoint x="1590" y="2160" as="targetPoint" />
          </mxGeometry>
        </mxCell>
        <mxCell id="284YQ6cZXjjt9D2VZ_ou-5" value="Extends" style="endArrow=block;endSize=16;endFill=0;html=1;rounded=0;" parent="1" source="284YQ6cZXjjt9D2VZ_ou-3" target="284YQ6cZXjjt9D2VZ_ou-1" edge="1">
          <mxGeometry width="160" relative="1" as="geometry">
            <mxPoint x="1430" y="2160" as="sourcePoint" />
            <mxPoint x="1590" y="2160" as="targetPoint" />
          </mxGeometry>
        </mxCell>
        <mxCell id="284YQ6cZXjjt9D2VZ_ou-6" value="Point" style="swimlane;fontStyle=1;align=center;verticalAlign=top;childLayout=stackLayout;horizontal=1;startSize=26;horizontalStack=0;resizeParent=1;resizeParentMax=0;resizeLast=0;collapsible=1;marginBottom=0;whiteSpace=wrap;html=1;" parent="1" vertex="1">
          <mxGeometry x="1241" y="2360" width="160" height="78" as="geometry" />
        </mxCell>
        <mxCell id="284YQ6cZXjjt9D2VZ_ou-9" value="+ x: double" style="text;strokeColor=none;fillColor=none;align=left;verticalAlign=top;spacingLeft=4;spacingRight=4;overflow=hidden;rotatable=0;points=[[0,0.5],[1,0.5]];portConstraint=eastwest;whiteSpace=wrap;html=1;" parent="284YQ6cZXjjt9D2VZ_ou-6" vertex="1">
          <mxGeometry y="26" width="160" height="26" as="geometry" />
        </mxCell>
        <mxCell id="284YQ6cZXjjt9D2VZ_ou-10" value="+ y: double" style="text;strokeColor=none;fillColor=none;align=left;verticalAlign=top;spacingLeft=4;spacingRight=4;overflow=hidden;rotatable=0;points=[[0,0.5],[1,0.5]];portConstraint=eastwest;whiteSpace=wrap;html=1;" parent="284YQ6cZXjjt9D2VZ_ou-6" vertex="1">
          <mxGeometry y="52" width="160" height="26" as="geometry" />
        </mxCell>
        <mxCell id="284YQ6cZXjjt9D2VZ_ou-7" value="Circle" style="swimlane;fontStyle=1;align=center;verticalAlign=top;childLayout=stackLayout;horizontal=1;startSize=26;horizontalStack=0;resizeParent=1;resizeParentMax=0;resizeLast=0;collapsible=1;marginBottom=0;whiteSpace=wrap;html=1;" parent="1" vertex="1">
          <mxGeometry x="1241" y="2530" width="160" height="52" as="geometry" />
        </mxCell>
        <mxCell id="284YQ6cZXjjt9D2VZ_ou-11" value="+ radius: double" style="text;strokeColor=none;fillColor=none;align=left;verticalAlign=top;spacingLeft=4;spacingRight=4;overflow=hidden;rotatable=0;points=[[0,0.5],[1,0.5]];portConstraint=eastwest;whiteSpace=wrap;html=1;" parent="284YQ6cZXjjt9D2VZ_ou-7" vertex="1">
          <mxGeometry y="26" width="160" height="26" as="geometry" />
        </mxCell>
        <mxCell id="284YQ6cZXjjt9D2VZ_ou-8" value="Cylinder" style="swimlane;fontStyle=1;align=center;verticalAlign=top;childLayout=stackLayout;horizontal=1;startSize=26;horizontalStack=0;resizeParent=1;resizeParentMax=0;resizeLast=0;collapsible=1;marginBottom=0;whiteSpace=wrap;html=1;" parent="1" vertex="1">
          <mxGeometry x="1241" y="2670" width="160" height="52" as="geometry" />
        </mxCell>
        <mxCell id="284YQ6cZXjjt9D2VZ_ou-14" value="+ height: double" style="text;strokeColor=none;fillColor=none;align=left;verticalAlign=top;spacingLeft=4;spacingRight=4;overflow=hidden;rotatable=0;points=[[0,0.5],[1,0.5]];portConstraint=eastwest;whiteSpace=wrap;html=1;" parent="284YQ6cZXjjt9D2VZ_ou-8" vertex="1">
          <mxGeometry y="26" width="160" height="26" as="geometry" />
        </mxCell>
        <mxCell id="284YQ6cZXjjt9D2VZ_ou-15" value="" style="endArrow=block;endSize=16;endFill=0;html=1;rounded=0;" parent="1" source="284YQ6cZXjjt9D2VZ_ou-7" target="284YQ6cZXjjt9D2VZ_ou-6" edge="1">
          <mxGeometry x="0.2667" y="1" width="160" relative="1" as="geometry">
            <mxPoint x="1430" y="2470" as="sourcePoint" />
            <mxPoint x="1590" y="2470" as="targetPoint" />
            <mxPoint as="offset" />
          </mxGeometry>
        </mxCell>
        <mxCell id="284YQ6cZXjjt9D2VZ_ou-16" value="" style="endArrow=block;endSize=16;endFill=0;html=1;rounded=0;" parent="1" source="284YQ6cZXjjt9D2VZ_ou-8" target="284YQ6cZXjjt9D2VZ_ou-7" edge="1">
          <mxGeometry x="0.2667" y="1" width="160" relative="1" as="geometry">
            <mxPoint x="1331" y="2548" as="sourcePoint" />
            <mxPoint x="1331" y="2488" as="targetPoint" />
            <mxPoint as="offset" />
          </mxGeometry>
        </mxCell>
        <mxCell id="284YQ6cZXjjt9D2VZ_ou-17" value="" style="shape=cross;whiteSpace=wrap;html=1;rotation=45;fillColor=#e51400;fontColor=#ffffff;strokeColor=#B20000;" parent="1" vertex="1">
          <mxGeometry x="1301" y="2479" width="40" height="40" as="geometry" />
        </mxCell>
        <mxCell id="284YQ6cZXjjt9D2VZ_ou-18" value="" style="shape=cross;whiteSpace=wrap;html=1;rotation=45;fillColor=#e51400;fontColor=#ffffff;strokeColor=#B20000;" parent="1" vertex="1">
          <mxGeometry x="1301" y="2610" width="40" height="40" as="geometry" />
        </mxCell>
        <mxCell id="284YQ6cZXjjt9D2VZ_ou-22" value="&lt;span&gt;Shape&lt;/span&gt;" style="swimlane;fontStyle=3;align=center;verticalAlign=top;childLayout=stackLayout;horizontal=1;startSize=26;horizontalStack=0;resizeParent=1;resizeParentMax=0;resizeLast=0;collapsible=1;marginBottom=0;whiteSpace=wrap;html=1;" parent="1" vertex="1">
          <mxGeometry x="1280" y="1760" width="160" height="52" as="geometry" />
        </mxCell>
        <mxCell id="284YQ6cZXjjt9D2VZ_ou-23" value="Circle" style="swimlane;fontStyle=1;align=center;verticalAlign=top;childLayout=stackLayout;horizontal=1;startSize=26;horizontalStack=0;resizeParent=1;resizeParentMax=0;resizeLast=0;collapsible=1;marginBottom=0;whiteSpace=wrap;html=1;" parent="1" vertex="1">
          <mxGeometry x="1200" y="1880" width="160" height="52" as="geometry" />
        </mxCell>
        <mxCell id="284YQ6cZXjjt9D2VZ_ou-36" value="+Draw(g:Graphics)" style="text;strokeColor=none;fillColor=none;align=left;verticalAlign=top;spacingLeft=4;spacingRight=4;overflow=hidden;rotatable=0;points=[[0,0.5],[1,0.5]];portConstraint=eastwest;whiteSpace=wrap;html=1;fontStyle=0" parent="284YQ6cZXjjt9D2VZ_ou-23" vertex="1">
          <mxGeometry y="26" width="160" height="26" as="geometry" />
        </mxCell>
        <mxCell id="284YQ6cZXjjt9D2VZ_ou-24" value="Extends" style="endArrow=block;endSize=16;endFill=0;html=1;rounded=0;" parent="1" source="284YQ6cZXjjt9D2VZ_ou-23" target="284YQ6cZXjjt9D2VZ_ou-22" edge="1">
          <mxGeometry width="160" relative="1" as="geometry">
            <mxPoint x="1270" y="1840" as="sourcePoint" />
            <mxPoint x="1430" y="1840" as="targetPoint" />
          </mxGeometry>
        </mxCell>
        <mxCell id="284YQ6cZXjjt9D2VZ_ou-25" value="Extends" style="endArrow=block;endSize=16;endFill=0;html=1;rounded=0;" parent="1" source="284YQ6cZXjjt9D2VZ_ou-29" target="284YQ6cZXjjt9D2VZ_ou-22" edge="1">
          <mxGeometry width="160" relative="1" as="geometry">
            <mxPoint x="1454" y="1880" as="sourcePoint" />
            <mxPoint x="1430" y="1840" as="targetPoint" />
          </mxGeometry>
        </mxCell>
        <mxCell id="284YQ6cZXjjt9D2VZ_ou-26" value="&lt;div&gt;&lt;span style=&quot;font-weight: normal;&quot;&gt;&lt;i&gt;&amp;lt;&amp;lt;interface&amp;gt;&amp;gt;&lt;/i&gt;&lt;/span&gt;&lt;/div&gt;&lt;i&gt;Drawable&lt;/i&gt;" style="swimlane;fontStyle=1;align=center;verticalAlign=top;childLayout=stackLayout;horizontal=1;startSize=40;horizontalStack=0;resizeParent=1;resizeParentMax=0;resizeLast=0;collapsible=1;marginBottom=0;whiteSpace=wrap;html=1;" parent="1" vertex="1">
          <mxGeometry x="1280" y="1636" width="160" height="66" as="geometry" />
        </mxCell>
        <mxCell id="284YQ6cZXjjt9D2VZ_ou-27" value="+Draw(g:Graphics)" style="text;strokeColor=none;fillColor=none;align=left;verticalAlign=top;spacingLeft=4;spacingRight=4;overflow=hidden;rotatable=0;points=[[0,0.5],[1,0.5]];portConstraint=eastwest;whiteSpace=wrap;html=1;fontStyle=2" parent="284YQ6cZXjjt9D2VZ_ou-26" vertex="1">
          <mxGeometry y="40" width="160" height="26" as="geometry" />
        </mxCell>
        <mxCell id="284YQ6cZXjjt9D2VZ_ou-28" value="" style="endArrow=block;dashed=1;endFill=0;endSize=12;html=1;rounded=0;" parent="1" source="284YQ6cZXjjt9D2VZ_ou-22" target="284YQ6cZXjjt9D2VZ_ou-26" edge="1">
          <mxGeometry width="160" relative="1" as="geometry">
            <mxPoint x="1717" y="1706" as="sourcePoint" />
            <mxPoint x="1877" y="1706" as="targetPoint" />
          </mxGeometry>
        </mxCell>
        <mxCell id="284YQ6cZXjjt9D2VZ_ou-29" value="Rectangle" style="swimlane;fontStyle=1;align=center;verticalAlign=top;childLayout=stackLayout;horizontal=1;startSize=26;horizontalStack=0;resizeParent=1;resizeParentMax=0;resizeLast=0;collapsible=1;marginBottom=0;whiteSpace=wrap;html=1;" parent="1" vertex="1">
          <mxGeometry x="1397" y="1880" width="160" height="52" as="geometry" />
        </mxCell>
        <mxCell id="284YQ6cZXjjt9D2VZ_ou-37" value="+Draw(g:Graphics)" style="text;strokeColor=none;fillColor=none;align=left;verticalAlign=top;spacingLeft=4;spacingRight=4;overflow=hidden;rotatable=0;points=[[0,0.5],[1,0.5]];portConstraint=eastwest;whiteSpace=wrap;html=1;fontStyle=0" parent="284YQ6cZXjjt9D2VZ_ou-29" vertex="1">
          <mxGeometry y="26" width="160" height="26" as="geometry" />
        </mxCell>
        <mxCell id="284YQ6cZXjjt9D2VZ_ou-30" value="&lt;div&gt;&lt;span style=&quot;font-weight: normal;&quot;&gt;&lt;i&gt;&amp;lt;&amp;lt;interface&amp;gt;&amp;gt;&lt;/i&gt;&lt;/span&gt;&lt;/div&gt;&lt;i&gt;Graphics&lt;/i&gt;" style="swimlane;fontStyle=1;align=center;verticalAlign=top;childLayout=stackLayout;horizontal=1;startSize=40;horizontalStack=0;resizeParent=1;resizeParentMax=0;resizeLast=0;collapsible=1;marginBottom=0;whiteSpace=wrap;html=1;" parent="1" vertex="1">
          <mxGeometry x="1597" y="1616" width="283" height="144" as="geometry" />
        </mxCell>
        <mxCell id="284YQ6cZXjjt9D2VZ_ou-31" value="+MoveTo(p: Point)" style="text;strokeColor=none;fillColor=none;align=left;verticalAlign=top;spacingLeft=4;spacingRight=4;overflow=hidden;rotatable=0;points=[[0,0.5],[1,0.5]];portConstraint=eastwest;whiteSpace=wrap;html=1;fontStyle=2" parent="284YQ6cZXjjt9D2VZ_ou-30" vertex="1">
          <mxGeometry y="40" width="283" height="26" as="geometry" />
        </mxCell>
        <mxCell id="284YQ6cZXjjt9D2VZ_ou-33" value="+LineTo(p: Point)" style="text;strokeColor=none;fillColor=none;align=left;verticalAlign=top;spacingLeft=4;spacingRight=4;overflow=hidden;rotatable=0;points=[[0,0.5],[1,0.5]];portConstraint=eastwest;whiteSpace=wrap;html=1;fontStyle=2" parent="284YQ6cZXjjt9D2VZ_ou-30" vertex="1">
          <mxGeometry y="66" width="283" height="26" as="geometry" />
        </mxCell>
        <mxCell id="284YQ6cZXjjt9D2VZ_ou-34" value="+DrawEllipse(leftTop: Point, rightBottom: Point)" style="text;strokeColor=none;fillColor=none;align=left;verticalAlign=top;spacingLeft=4;spacingRight=4;overflow=hidden;rotatable=0;points=[[0,0.5],[1,0.5]];portConstraint=eastwest;whiteSpace=wrap;html=1;fontStyle=2" parent="284YQ6cZXjjt9D2VZ_ou-30" vertex="1">
          <mxGeometry y="92" width="283" height="26" as="geometry" />
        </mxCell>
        <mxCell id="284YQ6cZXjjt9D2VZ_ou-35" value="+SetColor(color)" style="text;strokeColor=none;fillColor=none;align=left;verticalAlign=top;spacingLeft=4;spacingRight=4;overflow=hidden;rotatable=0;points=[[0,0.5],[1,0.5]];portConstraint=eastwest;whiteSpace=wrap;html=1;fontStyle=2" parent="284YQ6cZXjjt9D2VZ_ou-30" vertex="1">
          <mxGeometry y="118" width="283" height="26" as="geometry" />
        </mxCell>
        <mxCell id="284YQ6cZXjjt9D2VZ_ou-32" value="Use" style="endArrow=open;endSize=12;dashed=1;html=1;rounded=0;" parent="1" source="284YQ6cZXjjt9D2VZ_ou-26" target="284YQ6cZXjjt9D2VZ_ou-30" edge="1">
          <mxGeometry width="160" relative="1" as="geometry">
            <mxPoint x="1797" y="1826" as="sourcePoint" />
            <mxPoint x="1957" y="1826" as="targetPoint" />
          </mxGeometry>
        </mxCell>
        <mxCell id="284YQ6cZXjjt9D2VZ_ou-38" value="&lt;span style=&quot;font-style: normal;&quot;&gt;Cat&lt;/span&gt;" style="swimlane;fontStyle=3;align=center;verticalAlign=top;childLayout=stackLayout;horizontal=1;startSize=26;horizontalStack=0;resizeParent=1;resizeParentMax=0;resizeLast=0;collapsible=1;marginBottom=0;whiteSpace=wrap;html=1;" parent="1" vertex="1">
          <mxGeometry x="2030" y="1850" width="160" height="52" as="geometry" />
        </mxCell>
        <mxCell id="284YQ6cZXjjt9D2VZ_ou-39" value="+Draw(g:Graphics)" style="text;strokeColor=none;fillColor=none;align=left;verticalAlign=top;spacingLeft=4;spacingRight=4;overflow=hidden;rotatable=0;points=[[0,0.5],[1,0.5]];portConstraint=eastwest;whiteSpace=wrap;html=1;fontStyle=0" parent="284YQ6cZXjjt9D2VZ_ou-38" vertex="1">
          <mxGeometry y="26" width="160" height="26" as="geometry" />
        </mxCell>
        <mxCell id="284YQ6cZXjjt9D2VZ_ou-44" value="&lt;div&gt;&lt;span style=&quot;font-weight: normal;&quot;&gt;&lt;i&gt;&amp;lt;&amp;lt;interface&amp;gt;&amp;gt;&lt;/i&gt;&lt;/span&gt;&lt;/div&gt;&lt;i&gt;ILogger&lt;/i&gt;" style="swimlane;fontStyle=1;align=center;verticalAlign=top;childLayout=stackLayout;horizontal=1;startSize=40;horizontalStack=0;resizeParent=1;resizeParentMax=0;resizeLast=0;collapsible=1;marginBottom=0;whiteSpace=wrap;html=1;" parent="1" vertex="1">
          <mxGeometry x="2300" y="2080" width="160" height="66" as="geometry" />
        </mxCell>
        <mxCell id="284YQ6cZXjjt9D2VZ_ou-45" value="+ Log(message:string)" style="text;strokeColor=none;fillColor=none;align=left;verticalAlign=top;spacingLeft=4;spacingRight=4;overflow=hidden;rotatable=0;points=[[0,0.5],[1,0.5]];portConstraint=eastwest;whiteSpace=wrap;html=1;fontStyle=2" parent="284YQ6cZXjjt9D2VZ_ou-44" vertex="1">
          <mxGeometry y="40" width="160" height="26" as="geometry" />
        </mxCell>
        <mxCell id="284YQ6cZXjjt9D2VZ_ou-51" value="&lt;span style=&quot;font-style: normal;&quot;&gt;FileLogger&lt;/span&gt;" style="swimlane;fontStyle=3;align=center;verticalAlign=top;childLayout=stackLayout;horizontal=1;startSize=26;horizontalStack=0;resizeParent=1;resizeParentMax=0;resizeLast=0;collapsible=1;marginBottom=0;whiteSpace=wrap;html=1;" parent="1" vertex="1">
          <mxGeometry x="2200" y="2238" width="160" height="112" as="geometry" />
        </mxCell>
        <mxCell id="284YQ6cZXjjt9D2VZ_ou-78" value="+ FileLogger(filePath: path)" style="text;strokeColor=none;fillColor=none;align=left;verticalAlign=top;spacingLeft=4;spacingRight=4;overflow=hidden;rotatable=0;points=[[0,0.5],[1,0.5]];portConstraint=eastwest;whiteSpace=wrap;html=1;fontStyle=0" parent="284YQ6cZXjjt9D2VZ_ou-51" vertex="1">
          <mxGeometry y="26" width="160" height="26" as="geometry" />
        </mxCell>
        <mxCell id="284YQ6cZXjjt9D2VZ_ou-53" value="+ Log(message:string)" style="text;strokeColor=none;fillColor=none;align=left;verticalAlign=top;spacingLeft=4;spacingRight=4;overflow=hidden;rotatable=0;points=[[0,0.5],[1,0.5]];portConstraint=eastwest;whiteSpace=wrap;html=1;fontStyle=0" parent="284YQ6cZXjjt9D2VZ_ou-51" vertex="1">
          <mxGeometry y="52" width="160" height="26" as="geometry" />
        </mxCell>
        <mxCell id="284YQ6cZXjjt9D2VZ_ou-56" value="" style="line;strokeWidth=1;fillColor=none;align=left;verticalAlign=middle;spacingTop=-1;spacingLeft=3;spacingRight=3;rotatable=0;labelPosition=right;points=[];portConstraint=eastwest;strokeColor=inherit;" parent="284YQ6cZXjjt9D2VZ_ou-51" vertex="1">
          <mxGeometry y="78" width="160" height="8" as="geometry" />
        </mxCell>
        <mxCell id="284YQ6cZXjjt9D2VZ_ou-57" value="- m_stream: ofstream" style="text;strokeColor=none;fillColor=none;align=left;verticalAlign=top;spacingLeft=4;spacingRight=4;overflow=hidden;rotatable=0;points=[[0,0.5],[1,0.5]];portConstraint=eastwest;whiteSpace=wrap;html=1;" parent="284YQ6cZXjjt9D2VZ_ou-51" vertex="1">
          <mxGeometry y="86" width="160" height="26" as="geometry" />
        </mxCell>
        <mxCell id="284YQ6cZXjjt9D2VZ_ou-58" value="" style="endArrow=block;dashed=1;endFill=0;endSize=12;html=1;rounded=0;" parent="1" source="284YQ6cZXjjt9D2VZ_ou-51" target="284YQ6cZXjjt9D2VZ_ou-44" edge="1">
          <mxGeometry width="160" relative="1" as="geometry">
            <mxPoint x="2380" y="2200" as="sourcePoint" />
            <mxPoint x="2540" y="2200" as="targetPoint" />
          </mxGeometry>
        </mxCell>
        <mxCell id="284YQ6cZXjjt9D2VZ_ou-59" value="&lt;span style=&quot;font-style: normal;&quot;&gt;StubLogger&lt;/span&gt;" style="swimlane;fontStyle=3;align=center;verticalAlign=top;childLayout=stackLayout;horizontal=1;startSize=26;horizontalStack=0;resizeParent=1;resizeParentMax=0;resizeLast=0;collapsible=1;marginBottom=0;whiteSpace=wrap;html=1;" parent="1" vertex="1">
          <mxGeometry x="2441" y="2238" width="160" height="86" as="geometry" />
        </mxCell>
        <mxCell id="284YQ6cZXjjt9D2VZ_ou-60" value="+ Log(message:string)" style="text;strokeColor=none;fillColor=none;align=left;verticalAlign=top;spacingLeft=4;spacingRight=4;overflow=hidden;rotatable=0;points=[[0,0.5],[1,0.5]];portConstraint=eastwest;whiteSpace=wrap;html=1;fontStyle=0" parent="284YQ6cZXjjt9D2VZ_ou-59" vertex="1">
          <mxGeometry y="26" width="160" height="26" as="geometry" />
        </mxCell>
        <mxCell id="284YQ6cZXjjt9D2VZ_ou-77" value="" style="line;strokeWidth=1;fillColor=none;align=left;verticalAlign=middle;spacingTop=-1;spacingLeft=3;spacingRight=3;rotatable=0;labelPosition=right;points=[];portConstraint=eastwest;strokeColor=inherit;" parent="284YQ6cZXjjt9D2VZ_ou-59" vertex="1">
          <mxGeometry y="52" width="160" height="8" as="geometry" />
        </mxCell>
        <mxCell id="284YQ6cZXjjt9D2VZ_ou-62" value="+ lastMessage: string" style="text;strokeColor=none;fillColor=none;align=left;verticalAlign=top;spacingLeft=4;spacingRight=4;overflow=hidden;rotatable=0;points=[[0,0.5],[1,0.5]];portConstraint=eastwest;whiteSpace=wrap;html=1;" parent="284YQ6cZXjjt9D2VZ_ou-59" vertex="1">
          <mxGeometry y="60" width="160" height="26" as="geometry" />
        </mxCell>
        <mxCell id="284YQ6cZXjjt9D2VZ_ou-63" value="" style="endArrow=block;dashed=1;endFill=0;endSize=12;html=1;rounded=0;" parent="1" source="284YQ6cZXjjt9D2VZ_ou-59" target="284YQ6cZXjjt9D2VZ_ou-44" edge="1">
          <mxGeometry width="160" relative="1" as="geometry">
            <mxPoint x="2380" y="2200" as="sourcePoint" />
            <mxPoint x="2540" y="2200" as="targetPoint" />
          </mxGeometry>
        </mxCell>
        <mxCell id="284YQ6cZXjjt9D2VZ_ou-64" value="m_stream &amp;lt;&amp;lt; message &amp;lt;&amp;lt; &quot;\n&quot;;" style="shape=note;whiteSpace=wrap;html=1;backgroundOutline=1;darkOpacity=0.05;fillColor=#ffff88;strokeColor=#36393d;fontFamily=Consolas;size=15;align=left;spacingLeft=2;" parent="1" vertex="1">
          <mxGeometry x="2070" y="2393" width="207" height="45" as="geometry" />
        </mxCell>
        <mxCell id="284YQ6cZXjjt9D2VZ_ou-65" style="edgeStyle=orthogonalEdgeStyle;rounded=0;orthogonalLoop=1;jettySize=auto;html=1;" parent="1" source="284YQ6cZXjjt9D2VZ_ou-53" target="284YQ6cZXjjt9D2VZ_ou-64" edge="1">
          <mxGeometry relative="1" as="geometry" />
        </mxCell>
        <mxCell id="284YQ6cZXjjt9D2VZ_ou-66" value="m_lastMessage = message;" style="shape=note;whiteSpace=wrap;html=1;backgroundOutline=1;darkOpacity=0.05;fillColor=#ffff88;strokeColor=#36393d;fontFamily=Consolas;size=15;align=left;spacingLeft=2;" parent="1" vertex="1">
          <mxGeometry x="2310" y="2393" width="207" height="45" as="geometry" />
        </mxCell>
        <mxCell id="284YQ6cZXjjt9D2VZ_ou-67" style="edgeStyle=orthogonalEdgeStyle;rounded=0;orthogonalLoop=1;jettySize=auto;html=1;" parent="1" source="284YQ6cZXjjt9D2VZ_ou-60" target="284YQ6cZXjjt9D2VZ_ou-66" edge="1">
          <mxGeometry relative="1" as="geometry" />
        </mxCell>
        <mxCell id="284YQ6cZXjjt9D2VZ_ou-68" value="&lt;span style=&quot;font-style: normal;&quot;&gt;Service&lt;/span&gt;" style="swimlane;fontStyle=3;align=center;verticalAlign=top;childLayout=stackLayout;horizontal=1;startSize=26;horizontalStack=0;resizeParent=1;resizeParentMax=0;resizeLast=0;collapsible=1;marginBottom=0;whiteSpace=wrap;html=1;" parent="1" vertex="1">
          <mxGeometry x="1960" y="2080" width="160" height="112" as="geometry" />
        </mxCell>
        <mxCell id="284YQ6cZXjjt9D2VZ_ou-69" value="+ Service(logger:ILogger&amp;amp;)" style="text;strokeColor=none;fillColor=none;align=left;verticalAlign=top;spacingLeft=4;spacingRight=4;overflow=hidden;rotatable=0;points=[[0,0.5],[1,0.5]];portConstraint=eastwest;whiteSpace=wrap;html=1;fontStyle=0" parent="284YQ6cZXjjt9D2VZ_ou-68" vertex="1">
          <mxGeometry y="26" width="160" height="26" as="geometry" />
        </mxCell>
        <mxCell id="284YQ6cZXjjt9D2VZ_ou-72" value="+ DoSomething()" style="text;strokeColor=none;fillColor=none;align=left;verticalAlign=top;spacingLeft=4;spacingRight=4;overflow=hidden;rotatable=0;points=[[0,0.5],[1,0.5]];portConstraint=eastwest;whiteSpace=wrap;html=1;fontStyle=0" parent="284YQ6cZXjjt9D2VZ_ou-68" vertex="1">
          <mxGeometry y="52" width="160" height="26" as="geometry" />
        </mxCell>
        <mxCell id="284YQ6cZXjjt9D2VZ_ou-70" value="" style="line;strokeWidth=1;fillColor=none;align=left;verticalAlign=middle;spacingTop=-1;spacingLeft=3;spacingRight=3;rotatable=0;labelPosition=right;points=[];portConstraint=eastwest;strokeColor=inherit;" parent="284YQ6cZXjjt9D2VZ_ou-68" vertex="1">
          <mxGeometry y="78" width="160" height="8" as="geometry" />
        </mxCell>
        <mxCell id="284YQ6cZXjjt9D2VZ_ou-71" value="- m_logger: ILogger&amp;amp;" style="text;strokeColor=none;fillColor=none;align=left;verticalAlign=top;spacingLeft=4;spacingRight=4;overflow=hidden;rotatable=0;points=[[0,0.5],[1,0.5]];portConstraint=eastwest;whiteSpace=wrap;html=1;" parent="284YQ6cZXjjt9D2VZ_ou-68" vertex="1">
          <mxGeometry y="86" width="160" height="26" as="geometry" />
        </mxCell>
        <mxCell id="284YQ6cZXjjt9D2VZ_ou-73" value="" style="endArrow=diamondThin;endFill=0;endSize=24;html=1;rounded=0;" parent="1" source="284YQ6cZXjjt9D2VZ_ou-44" target="284YQ6cZXjjt9D2VZ_ou-68" edge="1">
          <mxGeometry width="160" relative="1" as="geometry">
            <mxPoint x="1920" y="2290" as="sourcePoint" />
            <mxPoint x="2080" y="2290" as="targetPoint" />
          </mxGeometry>
        </mxCell>
        <mxCell id="284YQ6cZXjjt9D2VZ_ou-74" value="m_logger.Log(&quot;Service is doing something&quot;);" style="shape=note;whiteSpace=wrap;html=1;backgroundOutline=1;darkOpacity=0.05;fillColor=#ffff88;strokeColor=#36393d;fontFamily=Consolas;size=15;align=left;spacingLeft=2;" parent="1" vertex="1">
          <mxGeometry x="1850" y="2264" width="300" height="45" as="geometry" />
        </mxCell>
        <mxCell id="284YQ6cZXjjt9D2VZ_ou-75" style="edgeStyle=orthogonalEdgeStyle;rounded=0;orthogonalLoop=1;jettySize=auto;html=1;" parent="1" source="284YQ6cZXjjt9D2VZ_ou-72" target="284YQ6cZXjjt9D2VZ_ou-74" edge="1">
          <mxGeometry relative="1" as="geometry" />
        </mxCell>
        <mxCell id="284YQ6cZXjjt9D2VZ_ou-79" value="&lt;span style=&quot;font-style: normal;&quot;&gt;ConcretePlugin&lt;/span&gt;" style="swimlane;fontStyle=3;align=center;verticalAlign=top;childLayout=stackLayout;horizontal=1;startSize=26;horizontalStack=0;resizeParent=1;resizeParentMax=0;resizeLast=0;collapsible=1;marginBottom=0;whiteSpace=wrap;html=1;" parent="1" vertex="1">
          <mxGeometry x="2068" y="2722" width="160" height="78" as="geometry" />
        </mxCell>
        <mxCell id="284YQ6cZXjjt9D2VZ_ou-87" value="+ Render()" style="text;strokeColor=none;fillColor=none;align=left;verticalAlign=top;spacingLeft=4;spacingRight=4;overflow=hidden;rotatable=0;points=[[0,0.5],[1,0.5]];portConstraint=eastwest;whiteSpace=wrap;html=1;fontStyle=0" parent="284YQ6cZXjjt9D2VZ_ou-79" vertex="1">
          <mxGeometry y="26" width="160" height="26" as="geometry" />
        </mxCell>
        <mxCell id="284YQ6cZXjjt9D2VZ_ou-81" value="..." style="text;strokeColor=none;fillColor=none;align=left;verticalAlign=top;spacingLeft=4;spacingRight=4;overflow=hidden;rotatable=0;points=[[0,0.5],[1,0.5]];portConstraint=eastwest;whiteSpace=wrap;html=1;fontStyle=0" parent="284YQ6cZXjjt9D2VZ_ou-79" vertex="1">
          <mxGeometry y="52" width="160" height="26" as="geometry" />
        </mxCell>
        <mxCell id="284YQ6cZXjjt9D2VZ_ou-84" value="&lt;div&gt;&lt;span style=&quot;font-weight: normal;&quot;&gt;&lt;i&gt;&amp;lt;&amp;lt;interface&amp;gt;&amp;gt;&lt;/i&gt;&lt;/span&gt;&lt;/div&gt;&lt;i&gt;IPlugin&lt;/i&gt;" style="swimlane;fontStyle=1;align=center;verticalAlign=top;childLayout=stackLayout;horizontal=1;startSize=40;horizontalStack=0;resizeParent=1;resizeParentMax=0;resizeLast=0;collapsible=1;marginBottom=0;whiteSpace=wrap;html=1;" parent="1" vertex="1">
          <mxGeometry x="1960" y="2600" width="160" height="66" as="geometry" />
        </mxCell>
        <mxCell id="284YQ6cZXjjt9D2VZ_ou-85" value="..." style="text;strokeColor=none;fillColor=none;align=left;verticalAlign=top;spacingLeft=4;spacingRight=4;overflow=hidden;rotatable=0;points=[[0,0.5],[1,0.5]];portConstraint=eastwest;whiteSpace=wrap;html=1;fontStyle=2" parent="284YQ6cZXjjt9D2VZ_ou-84" vertex="1">
          <mxGeometry y="40" width="160" height="26" as="geometry" />
        </mxCell>
        <mxCell id="284YQ6cZXjjt9D2VZ_ou-86" value="&lt;div&gt;&lt;span style=&quot;font-weight: normal;&quot;&gt;&lt;i&gt;&amp;lt;&amp;lt;interface&amp;gt;&amp;gt;&lt;/i&gt;&lt;/span&gt;&lt;/div&gt;&lt;i&gt;IRenderable&lt;/i&gt;" style="swimlane;fontStyle=1;align=center;verticalAlign=top;childLayout=stackLayout;horizontal=1;startSize=40;horizontalStack=0;resizeParent=1;resizeParentMax=0;resizeLast=0;collapsible=1;marginBottom=0;whiteSpace=wrap;html=1;" parent="1" vertex="1">
          <mxGeometry x="2200" y="2600" width="160" height="66" as="geometry" />
        </mxCell>
        <mxCell id="284YQ6cZXjjt9D2VZ_ou-98" value="+ Render()" style="text;strokeColor=none;fillColor=none;align=left;verticalAlign=top;spacingLeft=4;spacingRight=4;overflow=hidden;rotatable=0;points=[[0,0.5],[1,0.5]];portConstraint=eastwest;whiteSpace=wrap;html=1;fontStyle=2" parent="284YQ6cZXjjt9D2VZ_ou-86" vertex="1">
          <mxGeometry y="40" width="160" height="26" as="geometry" />
        </mxCell>
        <mxCell id="284YQ6cZXjjt9D2VZ_ou-88" value="" style="endArrow=block;dashed=1;endFill=0;endSize=12;html=1;rounded=0;" parent="1" source="284YQ6cZXjjt9D2VZ_ou-79" target="284YQ6cZXjjt9D2VZ_ou-84" edge="1">
          <mxGeometry width="160" relative="1" as="geometry">
            <mxPoint x="1950" y="2730" as="sourcePoint" />
            <mxPoint x="2110" y="2730" as="targetPoint" />
          </mxGeometry>
        </mxCell>
        <mxCell id="284YQ6cZXjjt9D2VZ_ou-90" value="" style="endArrow=block;dashed=1;endFill=0;endSize=12;html=1;rounded=0;" parent="1" source="284YQ6cZXjjt9D2VZ_ou-79" target="284YQ6cZXjjt9D2VZ_ou-86" edge="1">
          <mxGeometry width="160" relative="1" as="geometry">
            <mxPoint x="1950" y="2730" as="sourcePoint" />
            <mxPoint x="2110" y="2730" as="targetPoint" />
          </mxGeometry>
        </mxCell>
        <mxCell id="284YQ6cZXjjt9D2VZ_ou-91" value="Client" style="swimlane;fontStyle=1;align=center;verticalAlign=top;childLayout=stackLayout;horizontal=1;startSize=26;horizontalStack=0;resizeParent=1;resizeParentMax=0;resizeLast=0;collapsible=1;marginBottom=0;whiteSpace=wrap;html=1;" parent="1" vertex="1">
          <mxGeometry x="1720" y="2600" width="160" height="52" as="geometry" />
        </mxCell>
        <mxCell id="284YQ6cZXjjt9D2VZ_ou-96" value="+Process(plugin:IPlugin)" style="text;strokeColor=none;fillColor=none;align=left;verticalAlign=top;spacingLeft=4;spacingRight=4;overflow=hidden;rotatable=0;points=[[0,0.5],[1,0.5]];portConstraint=eastwest;whiteSpace=wrap;html=1;" parent="284YQ6cZXjjt9D2VZ_ou-91" vertex="1">
          <mxGeometry y="26" width="160" height="26" as="geometry" />
        </mxCell>
        <mxCell id="284YQ6cZXjjt9D2VZ_ou-95" value="Use" style="endArrow=open;endSize=12;dashed=1;html=1;rounded=0;" parent="1" source="284YQ6cZXjjt9D2VZ_ou-91" target="284YQ6cZXjjt9D2VZ_ou-84" edge="1">
          <mxGeometry width="160" relative="1" as="geometry">
            <mxPoint x="1930" y="2790" as="sourcePoint" />
            <mxPoint x="2090" y="2790" as="targetPoint" />
          </mxGeometry>
        </mxCell>
        <mxCell id="284YQ6cZXjjt9D2VZ_ou-97" value="Use" style="endArrow=open;endSize=12;dashed=1;html=1;rounded=0;edgeStyle=orthogonalEdgeStyle;" parent="1" source="284YQ6cZXjjt9D2VZ_ou-91" target="284YQ6cZXjjt9D2VZ_ou-86" edge="1">
          <mxGeometry width="160" relative="1" as="geometry">
            <mxPoint x="1870" y="2549.67" as="sourcePoint" />
            <mxPoint x="1950" y="2552.67" as="targetPoint" />
            <Array as="points">
              <mxPoint x="1820" y="2550" />
              <mxPoint x="2280" y="2550" />
            </Array>
          </mxGeometry>
        </mxCell>
        <mxCell id="284YQ6cZXjjt9D2VZ_ou-99" value="&lt;span style=&quot;font-style: normal;&quot;&gt;ConcretePlugin&lt;/span&gt;" style="swimlane;fontStyle=3;align=center;verticalAlign=top;childLayout=stackLayout;horizontal=1;startSize=26;horizontalStack=0;resizeParent=1;resizeParentMax=0;resizeLast=0;collapsible=1;marginBottom=0;whiteSpace=wrap;html=1;" parent="1" vertex="1">
          <mxGeometry x="2088" y="3070" width="332" height="104" as="geometry" />
        </mxCell>
        <mxCell id="284YQ6cZXjjt9D2VZ_ou-100" value="+ Render()" style="text;strokeColor=none;fillColor=none;align=left;verticalAlign=top;spacingLeft=4;spacingRight=4;overflow=hidden;rotatable=0;points=[[0,0.5],[1,0.5]];portConstraint=eastwest;whiteSpace=wrap;html=1;fontStyle=0" parent="284YQ6cZXjjt9D2VZ_ou-99" vertex="1">
          <mxGeometry y="26" width="332" height="26" as="geometry" />
        </mxCell>
        <mxCell id="284YQ6cZXjjt9D2VZ_ou-113" value="&lt;span&gt;+ TryGetRenderable(): IRenderable*&lt;/span&gt;" style="text;strokeColor=none;fillColor=none;align=left;verticalAlign=top;spacingLeft=4;spacingRight=4;overflow=hidden;rotatable=0;points=[[0,0.5],[1,0.5]];portConstraint=eastwest;whiteSpace=wrap;html=1;fontStyle=0" parent="284YQ6cZXjjt9D2VZ_ou-99" vertex="1">
          <mxGeometry y="52" width="332" height="26" as="geometry" />
        </mxCell>
        <mxCell id="284YQ6cZXjjt9D2VZ_ou-101" value="..." style="text;strokeColor=none;fillColor=none;align=left;verticalAlign=top;spacingLeft=4;spacingRight=4;overflow=hidden;rotatable=0;points=[[0,0.5],[1,0.5]];portConstraint=eastwest;whiteSpace=wrap;html=1;fontStyle=0" parent="284YQ6cZXjjt9D2VZ_ou-99" vertex="1">
          <mxGeometry y="78" width="332" height="26" as="geometry" />
        </mxCell>
        <mxCell id="284YQ6cZXjjt9D2VZ_ou-102" value="&lt;div&gt;&lt;span style=&quot;font-weight: normal;&quot;&gt;&lt;i&gt;&amp;lt;&amp;lt;interface&amp;gt;&amp;gt;&lt;/i&gt;&lt;/span&gt;&lt;/div&gt;&lt;i&gt;IPlugin&lt;/i&gt;" style="swimlane;fontStyle=1;align=center;verticalAlign=top;childLayout=stackLayout;horizontal=1;startSize=40;horizontalStack=0;resizeParent=1;resizeParentMax=0;resizeLast=0;collapsible=1;marginBottom=0;whiteSpace=wrap;html=1;" parent="1" vertex="1">
          <mxGeometry x="1980" y="2900" width="240" height="92" as="geometry" />
        </mxCell>
        <mxCell id="284YQ6cZXjjt9D2VZ_ou-112" value="&lt;i&gt;+ TryGetRenderable(): IRenderable*&lt;/i&gt;" style="text;strokeColor=none;fillColor=none;align=left;verticalAlign=top;spacingLeft=4;spacingRight=4;overflow=hidden;rotatable=0;points=[[0,0.5],[1,0.5]];portConstraint=eastwest;whiteSpace=wrap;html=1;" parent="284YQ6cZXjjt9D2VZ_ou-102" vertex="1">
          <mxGeometry y="40" width="240" height="26" as="geometry" />
        </mxCell>
        <mxCell id="284YQ6cZXjjt9D2VZ_ou-103" value="..." style="text;strokeColor=none;fillColor=none;align=left;verticalAlign=top;spacingLeft=4;spacingRight=4;overflow=hidden;rotatable=0;points=[[0,0.5],[1,0.5]];portConstraint=eastwest;whiteSpace=wrap;html=1;fontStyle=2" parent="284YQ6cZXjjt9D2VZ_ou-102" vertex="1">
          <mxGeometry y="66" width="240" height="26" as="geometry" />
        </mxCell>
        <mxCell id="284YQ6cZXjjt9D2VZ_ou-104" value="&lt;div&gt;&lt;span style=&quot;font-weight: normal;&quot;&gt;&lt;i&gt;&amp;lt;&amp;lt;interface&amp;gt;&amp;gt;&lt;/i&gt;&lt;/span&gt;&lt;/div&gt;&lt;i&gt;IRenderable&lt;/i&gt;" style="swimlane;fontStyle=1;align=center;verticalAlign=top;childLayout=stackLayout;horizontal=1;startSize=40;horizontalStack=0;resizeParent=1;resizeParentMax=0;resizeLast=0;collapsible=1;marginBottom=0;whiteSpace=wrap;html=1;" parent="1" vertex="1">
          <mxGeometry x="2333.5" y="2900" width="160" height="66" as="geometry" />
        </mxCell>
        <mxCell id="284YQ6cZXjjt9D2VZ_ou-105" value="+ Render()" style="text;strokeColor=none;fillColor=none;align=left;verticalAlign=top;spacingLeft=4;spacingRight=4;overflow=hidden;rotatable=0;points=[[0,0.5],[1,0.5]];portConstraint=eastwest;whiteSpace=wrap;html=1;fontStyle=2" parent="284YQ6cZXjjt9D2VZ_ou-104" vertex="1">
          <mxGeometry y="40" width="160" height="26" as="geometry" />
        </mxCell>
        <mxCell id="284YQ6cZXjjt9D2VZ_ou-106" value="" style="endArrow=block;dashed=1;endFill=0;endSize=12;html=1;rounded=0;" parent="1" source="284YQ6cZXjjt9D2VZ_ou-99" target="284YQ6cZXjjt9D2VZ_ou-102" edge="1">
          <mxGeometry width="160" relative="1" as="geometry">
            <mxPoint x="1970" y="3030" as="sourcePoint" />
            <mxPoint x="2130" y="3030" as="targetPoint" />
          </mxGeometry>
        </mxCell>
        <mxCell id="284YQ6cZXjjt9D2VZ_ou-107" value="" style="endArrow=block;dashed=1;endFill=0;endSize=12;html=1;rounded=0;" parent="1" source="284YQ6cZXjjt9D2VZ_ou-99" target="284YQ6cZXjjt9D2VZ_ou-104" edge="1">
          <mxGeometry width="160" relative="1" as="geometry">
            <mxPoint x="1970" y="3030" as="sourcePoint" />
            <mxPoint x="2130" y="3030" as="targetPoint" />
          </mxGeometry>
        </mxCell>
        <mxCell id="284YQ6cZXjjt9D2VZ_ou-108" value="Client" style="swimlane;fontStyle=1;align=center;verticalAlign=top;childLayout=stackLayout;horizontal=1;startSize=26;horizontalStack=0;resizeParent=1;resizeParentMax=0;resizeLast=0;collapsible=1;marginBottom=0;whiteSpace=wrap;html=1;" parent="1" vertex="1">
          <mxGeometry x="1658.5" y="2880" width="160" height="52" as="geometry" />
        </mxCell>
        <mxCell id="284YQ6cZXjjt9D2VZ_ou-109" value="+Process(plugin:IPlugin)" style="text;strokeColor=none;fillColor=none;align=left;verticalAlign=top;spacingLeft=4;spacingRight=4;overflow=hidden;rotatable=0;points=[[0,0.5],[1,0.5]];portConstraint=eastwest;whiteSpace=wrap;html=1;" parent="284YQ6cZXjjt9D2VZ_ou-108" vertex="1">
          <mxGeometry y="26" width="160" height="26" as="geometry" />
        </mxCell>
        <mxCell id="284YQ6cZXjjt9D2VZ_ou-110" value="Use" style="endArrow=open;endSize=12;dashed=1;html=1;rounded=0;" parent="1" source="284YQ6cZXjjt9D2VZ_ou-108" target="284YQ6cZXjjt9D2VZ_ou-102" edge="1">
          <mxGeometry width="160" relative="1" as="geometry">
            <mxPoint x="1950" y="3090" as="sourcePoint" />
            <mxPoint x="2110" y="3090" as="targetPoint" />
          </mxGeometry>
        </mxCell>
        <mxCell id="284YQ6cZXjjt9D2VZ_ou-111" value="Use" style="endArrow=open;endSize=12;dashed=1;html=1;rounded=0;edgeStyle=orthogonalEdgeStyle;" parent="1" source="284YQ6cZXjjt9D2VZ_ou-102" target="284YQ6cZXjjt9D2VZ_ou-104" edge="1">
          <mxGeometry width="160" relative="1" as="geometry">
            <mxPoint x="1890" y="2849.67" as="sourcePoint" />
            <mxPoint x="1970" y="2852.67" as="targetPoint" />
            <Array as="points">
              <mxPoint x="2270" y="2940" />
              <mxPoint x="2270" y="2940" />
            </Array>
          </mxGeometry>
        </mxCell>
        <mxCell id="284YQ6cZXjjt9D2VZ_ou-114" value="return this;" style="shape=note;whiteSpace=wrap;html=1;backgroundOutline=1;darkOpacity=0.05;fillColor=#ffff88;strokeColor=#36393d;fontFamily=Consolas;size=15;align=left;spacingLeft=2;" parent="1" vertex="1">
          <mxGeometry x="1800" y="3106" width="170" height="60" as="geometry" />
        </mxCell>
        <mxCell id="284YQ6cZXjjt9D2VZ_ou-115" style="edgeStyle=orthogonalEdgeStyle;rounded=0;orthogonalLoop=1;jettySize=auto;html=1;" parent="1" source="284YQ6cZXjjt9D2VZ_ou-113" target="284YQ6cZXjjt9D2VZ_ou-114" edge="1">
          <mxGeometry relative="1" as="geometry" />
        </mxCell>
        <mxCell id="284YQ6cZXjjt9D2VZ_ou-116" value="if (auto *r = plugin.TryGetRenderable())&lt;div&gt;&amp;nbsp; r-&amp;gt;Render();&lt;/div&gt;" style="shape=note;whiteSpace=wrap;html=1;backgroundOutline=1;darkOpacity=0.05;fillColor=#ffff88;strokeColor=#36393d;fontFamily=Consolas;size=15;align=left;spacingLeft=2;" parent="1" vertex="1">
          <mxGeometry x="1525" y="3010" width="305" height="60" as="geometry" />
        </mxCell>
        <mxCell id="284YQ6cZXjjt9D2VZ_ou-117" style="edgeStyle=orthogonalEdgeStyle;rounded=0;orthogonalLoop=1;jettySize=auto;html=1;" parent="1" source="284YQ6cZXjjt9D2VZ_ou-109" target="284YQ6cZXjjt9D2VZ_ou-116" edge="1">
          <mxGeometry relative="1" as="geometry" />
        </mxCell>
      </root>
    </mxGraphModel>
  </diagram>
</mxfile>
